<?xml version="1.0" encoding="utf-8"?>
<!-- Generator: Adobe Illustrator 19.0.0, SVG Export Plug-In . SVG Version: 6.00 Build 0)  -->
<svg version="1.1" id="Layer_1" xmlns="http://www.w3.org/2000/svg" xmlns:xlink="http://www.w3.org/1999/xlink" x="0px" y="0px"
	 viewBox="-225.2 307.1 1173.2 178.1" style="enable-background:new -225.2 307.1 1173.2 178.1;" xml:space="preserve">
<style type="text/css">
	.st0{fill:#1A81DD;}
	.st1{fill:#312AE2;}
</style>
<path id="XMLID_82_" class="st0" d="M-585.7,368.3c8.3,1.5,16.6,1.6,24.9,0.5c9.1-1.2,17.9-4.3,26-8.4c4.1-2.1,7.9-4.7,11.5-7.5
	c1.8,2.3,3.6,4.6,5.4,6.9c0.3,0.4,0.9,0.9,1,1.3c0,0.1,0.2,0.1,0.2,0.2c0,0.2-1,0.8-1.2,0.9c-2.6,2-5.3,3.8-8.1,5.5
	c-6.1,3.5-12.4,6.5-19.2,8.6c-6.7,2.1-13.6,3.3-20.6,3.8c-7.3,0.5-14.7,0.1-21.9-1.2C-586.9,375.3-586.3,371.8-585.7,368.3z"/>
<path id="XMLID_79_" class="st1" d="M-641,327.9c2,4.1,4.7,7.9,7.5,11.4c2.8,3.6,5.9,7,9.3,10c6.1,5.4,12.8,9.9,20.3,13.3
	c4.4,2,9.1,3.7,13.8,4.7c-0.4,1.7-0.8,3.3-1.2,5c-0.3,1.2-0.6,2.3-0.8,3.5c-0.1,0.3-0.2,1.7-0.5,1.9c-0.2,0.1-1-0.2-1.3-0.3
	c-1.1-0.3-2.2-0.6-3.3-0.9c-2.1-0.6-4.2-1.3-6.3-2.1c-4.3-1.7-8.4-3.6-12.4-5.9c-6.3-3.6-12.1-8-17.4-13.1
	c-6.5-6.2-11.9-13.4-16.3-21.2c-0.1-0.2-0.7-1-0.6-1.3c0.1-0.1,0.6-0.3,0.7-0.4c1.1-0.6,2.1-1.1,3.2-1.7
	C-644.6,329.8-642.8,328.9-641,327.9z"/>
<path id="XMLID_78_" class="st0" d="M-643.5,259c-5.1,11.2-7.3,23.8-6.6,36.1c0.4,6.5,1.5,12.9,3.4,19.1c0.8,2.7,1.8,5.3,2.9,7.9
	c0.1,0.2,0.6,1.1,0.6,1.2l-0.2,0.1c-0.3,0.3-1,0.5-1.4,0.6c-2.7,1.2-5.5,2.5-8.2,3.7c-5.6-12.5-8.4-26.2-7.9-39.8
	c0.3-7.2,1.3-14.3,3.3-21.2c0.8-3,1.8-5.9,3-8.8c0.3-0.7,0.5-1.3,0.8-2c0.1-0.2,0.4-1.1,0.5-1.2c0.2-0.1,0.7,0.3,0.9,0.4
	C-649.4,256.4-646.5,257.7-643.5,259z"/>
<path id="XMLID_76_" class="st1" d="M-590.2,214.6c-16.4,3.8-31.7,13.5-42.3,26.6c-3.2,4-6.3,8.3-8.6,12.8c-1.5-0.8-3-1.6-4.5-2.4
	c-1.1-0.6-2.1-1.1-3.2-1.7c-0.3-0.2-1.6-0.6-1.7-0.9c-0.1-0.2,0.5-1,0.6-1.2c0.6-1,1.1-2,1.7-3c1.1-1.9,2.4-3.7,3.7-5.5
	c2.7-3.8,5.7-7.3,8.9-10.7c11.2-11.7,25.9-20,41.4-24.1c0.3-0.1,1.4-0.3,1.4-0.3s0.2,0.7,0.2,0.8c0.3,1.2,0.6,2.4,0.9,3.5
	C-591.2,210.6-590.7,212.6-590.2,214.6z"/>
<path id="XMLID_73_" class="st0" d="M-522.9,229.3c-13.9-10.9-31.2-17.1-48.9-16.9c-4.5,0-9,0.4-13.4,1.2c-0.5-2.9-1-5.9-1.5-8.8
	c-0.1-0.4-0.3-1.6-0.3-1.6s1.6-0.5,2.1-0.5c3.3-0.5,6.6-0.8,9.9-0.9c13.7-0.3,27.2,2,39.7,7.6c6.8,3.1,13.2,6.9,19.1,11.5
	C-518.5,223.7-520.7,226.5-522.9,229.3z"/>
<path id="XMLID_54_" class="st1" d="M-482.4,287.7c0-0.3,0-0.5,0-0.8c0-0.3,0-0.6,0-0.9c0-0.6-0.1-1.3-0.1-2
	c-0.1-0.7-0.1-1.5-0.2-2.3c-0.1-0.8-0.2-1.6-0.3-2.5c-0.1-0.9-0.2-1.8-0.4-2.7c-0.2-0.9-0.3-1.9-0.5-2.9c0-0.2-0.1-0.5-0.1-0.8
	c-0.1-0.2-0.1-0.5-0.2-0.8c-0.1-0.5-0.2-1-0.4-1.5c-0.1-0.5-0.2-1-0.4-1.6c0-0.1-0.1-0.3-0.1-0.4l-0.1-0.4c-0.1-0.3-0.1-0.5-0.2-0.8
	c-0.3-1.1-0.6-2.1-0.9-3.2c-0.4-1.1-0.7-2.2-1.1-3.3c-0.1-0.3-0.2-0.6-0.3-0.8c-0.1-0.3-0.2-0.5-0.3-0.8c-0.2-0.5-0.4-1.1-0.6-1.6
	s-0.4-1.1-0.7-1.6c-0.2-0.5-0.5-1.1-0.7-1.6c-0.9-2.2-2-4.2-3.1-6.3c-0.6-1-1.1-2-1.7-3c-0.3-0.5-0.6-1-0.9-1.4
	c-0.3-0.5-0.6-0.9-0.9-1.4s-0.6-0.9-0.9-1.4c-0.3-0.4-0.6-0.9-0.9-1.3c-0.3-0.4-0.6-0.9-0.9-1.3s-0.6-0.8-0.9-1.2
	c-0.6-0.8-1.2-1.6-1.8-2.3c-0.1-0.2-0.3-0.4-0.4-0.6s-0.3-0.4-0.4-0.5c-0.3-0.3-0.6-0.7-0.9-1c-0.6-0.7-1.1-1.3-1.7-1.9
	c-0.6-0.6-1.1-1.1-1.6-1.7c-0.5-0.5-1-1-1.4-1.4c-0.4-0.4-0.9-0.8-1.2-1.2c-0.7-0.7-1.3-1.3-1.7-1.6c-0.4-0.4-0.6-0.6-0.6-0.6
	l-7.1,8c0,0,0.2,0.2,0.6,0.5c0.4,0.3,0.9,0.8,1.5,1.5c0.3,0.3,0.7,0.7,1.1,1c0.4,0.4,0.8,0.8,1.2,1.3c0.4,0.5,0.9,0.9,1.4,1.5
	c0.5,0.5,1,1.1,1.5,1.7c0.3,0.3,0.5,0.6,0.8,0.9c0.1,0.2,0.3,0.3,0.4,0.5c0.1,0.2,0.3,0.3,0.4,0.5c0.5,0.7,1.1,1.3,1.6,2
	c0.3,0.3,0.5,0.7,0.8,1.1s0.5,0.7,0.8,1.1c0.3,0.4,0.5,0.8,0.8,1.2c0.3,0.4,0.5,0.8,0.8,1.2c0.3,0.4,0.5,0.8,0.8,1.2
	c0.3,0.4,0.5,0.8,0.8,1.3c0.5,0.9,1,1.7,1.5,2.6c0.9,1.8,1.9,3.6,2.7,5.5l0.6,1.4c0.2,0.5,0.4,1,0.6,1.4c0.2,0.5,0.4,1,0.6,1.4
	c0.1,0.2,0.2,0.5,0.3,0.7c0.1,0.2,0.2,0.5,0.3,0.7c0.3,1,0.7,1.9,1,2.9s0.5,1.9,0.8,2.8c0.1,0.2,0.1,0.5,0.2,0.7l0.1,0.3l0.1,0.3
	c0.1,0.5,0.2,0.9,0.3,1.4c0.1,0.5,0.2,0.9,0.3,1.4c0.1,0.2,0.1,0.4,0.2,0.7c0,0.2,0.1,0.4,0.1,0.7c0.2,0.9,0.3,1.7,0.5,2.6
	c0.2,0.8,0.2,1.6,0.3,2.4c0.1,0.8,0.2,1.5,0.3,2.2c0.1,0.7,0.1,1.4,0.2,2c0,0.6,0.1,1.2,0.1,1.8c0,0.3,0,0.5,0,0.8
	c0,0.3,0,0.5,0,0.7c0,1.8,0.1,2.8,0.1,2.8s0,1-0.1,2.8c0,0.2,0,0.5,0,0.7c0,0.3,0,0.5,0,0.8c0,0.5-0.1,1.1-0.1,1.8
	c0,0.6-0.1,1.3-0.2,2s-0.2,1.4-0.3,2.2c-0.1,0.8-0.2,1.6-0.3,2.4c-0.1,0.8-0.3,1.7-0.5,2.6c0,0.2-0.1,0.4-0.1,0.7
	c-0.1,0.2-0.1,0.4-0.2,0.7c-0.1,0.4-0.2,0.9-0.3,1.4c-0.1,0.5-0.2,0.9-0.3,1.4l-0.1,0.3l-0.1,0.3c-0.1,0.2-0.1,0.5-0.2,0.7
	c-0.3,0.9-0.5,1.9-0.8,2.8s-0.6,1.9-1,2.9c-0.1,0.2-0.2,0.5-0.3,0.7c-0.1,0.2-0.2,0.5-0.3,0.7c-0.2,0.5-0.4,1-0.6,1.4
	c-0.2,0.5-0.4,1-0.6,1.4l-0.6,1.4c-0.8,1.9-1.8,3.7-2.7,5.5c-0.5,0.9-1,1.8-1.5,2.6c-0.2,0.4-0.5,0.9-0.8,1.3s-0.5,0.8-0.8,1.2
	s-0.5,0.8-0.8,1.2c-0.3,0.4-0.5,0.8-0.8,1.2s-0.5,0.8-0.8,1.1c-0.3,0.4-0.5,0.7-0.8,1.1c-0.5,0.7-1.1,1.4-1.6,2
	c-0.1,0.2-0.3,0.3-0.4,0.5c-0.1,0.2-0.3,0.3-0.4,0.5c-0.3,0.3-0.5,0.6-0.8,0.9c-0.5,0.6-1,1.2-1.5,1.7s-1,1-1.4,1.5
	c-0.4,0.5-0.8,0.9-1.2,1.3s-0.8,0.7-1.1,1c-0.7,0.6-1.2,1.1-1.5,1.5c-0.4,0.3-0.6,0.5-0.6,0.5l7.1,8c0,0,0.2-0.2,0.6-0.6
	s1-0.9,1.7-1.6c0.4-0.4,0.8-0.7,1.2-1.2c0.4-0.4,0.9-0.9,1.4-1.4s1-1.1,1.6-1.7c0.5-0.6,1.1-1.2,1.7-1.9c0.3-0.3,0.6-0.7,0.9-1
	c0.1-0.2,0.3-0.3,0.4-0.5c0.1-0.2,0.3-0.4,0.4-0.6c0.6-0.7,1.2-1.5,1.8-2.3c0.3-0.4,0.6-0.8,0.9-1.2s0.6-0.8,0.9-1.3
	c0.3-0.4,0.6-0.9,0.9-1.3s0.6-0.9,0.9-1.4s0.6-0.9,0.9-1.4s0.6-0.9,0.9-1.4c0.6-1,1.1-2,1.7-3c1.1-2.1,2.2-4.1,3.1-6.3
	c0.2-0.5,0.5-1.1,0.7-1.6s0.4-1.1,0.7-1.6c0.2-0.5,0.4-1.1,0.6-1.6c0.1-0.3,0.2-0.5,0.3-0.8c0.1-0.3,0.2-0.5,0.3-0.8
	c0.4-1.1,0.7-2.2,1.1-3.3c0.3-1.1,0.6-2.2,0.9-3.2c0.1-0.3,0.1-0.5,0.2-0.8l0.1-0.4c0-0.1,0.1-0.3,0.1-0.4c0.1-0.5,0.2-1.1,0.4-1.6
	c0.1-0.5,0.2-1,0.4-1.5c0.1-0.3,0.1-0.5,0.2-0.8c0.1-0.3,0.1-0.5,0.1-0.8c0.2-1,0.4-2,0.5-2.9c0.2-0.9,0.3-1.8,0.4-2.7
	c0.1-0.9,0.2-1.7,0.3-2.5c0.1-0.8,0.1-1.6,0.2-2.3c0.1-0.7,0.1-1.4,0.1-2c0-0.3,0-0.6,0-0.9s0-0.6,0-0.8c0-2.1,0.1-3.2,0.1-3.2
	S-482.4,289.8-482.4,287.7z"/>
<path id="XMLID_81_" class="st0" d="M-496.8,289.6c-0.4-14.5-4.9-28.8-13-40.8c-8.4-12.3-20.4-21.9-34.3-27.4
	c-13.9-5.5-29.5-6.8-44.1-3.5c-14.6,3.4-28.2,11.2-38.4,22.2c-11.1,11.9-17.9,27.4-19.5,43.5c-1.6,16.5,2.4,33.6,11.3,47.6
	c8.5,13.5,21.7,24.1,36.7,29.7c14.7,5.5,30.9,6.4,46,2.3c14.3-3.9,27.3-12,37-23.2c9.3-10.7,15.5-23.9,17.5-37.9
	C-497,297.9-496.7,293.7-496.8,289.6z M-507.2,292.1c-0.3,12.5-4.2,24.9-11.2,35.2c-7.2,10.6-17.6,18.9-29.6,23.6
	c-12,4.7-25.3,5.8-37.9,2.9c-12.7-2.9-24.2-9.6-33.1-19.1c-9.6-10.3-15.4-23.5-16.9-37.5c-1.4-14.2,2.1-28.9,9.7-41
	c6.9-10.9,17.3-19.5,29.1-24.6c12.7-5.5,27.4-6.7,40.8-3.3c12.7,3.2,24.6,10.3,33.2,20.2c8.1,9.3,13.4,21,15.2,33.2
	C-507.3,285.2-507.1,288.7-507.2,292.1c0,0,0-0.2,0-0.3C-507.2,291.9-507.2,292-507.2,292.1C-507.6,309.6-507.2,291.3-507.2,292.1z"
	/>
<text transform="matrix(1 0 0 1 -81.3975 85.95)"><tspan x="0" y="0" class="st0" style="font-family:'Lobster1.4'; font-size:76.4224px;">Dynamic Crown    </tspan><tspan x="167.2" y="91.7" class="st0" style="font-family:'Lobster1.4'; font-size:76.4224px;">Bridge</tspan></text>
<path id="XMLID_125_" class="st0" d="M-105.1,413.7L-105.1,413.7L-105.1,413.7c0-0.1,0-0.1,0-0.2c0,0-0.1,0-0.2-0.1
	c-1.8-1.8-12.7-7.7-27.4-6.3c-3.6,0.3-7.6,1.2-11.6,2.6c-0.6,0.2-1.2,0.4-1.7,0.6c-19.4,7.6-20.2,20.9-20.3,21.2l0,0
	c1,2.6,2.2,5.6,3.6,8.5l0,0l0,0c3.6,7.4,8.2,13.5,11.6,7.1c6-11.1,6.4-13.3,8.2-17.9c1.9-4.5,2.2-6.9,7.5-0.3
	c1.9,2.4,28.9,29.3,28.8,15.6C-106.7,431.8-106.1,421.7-105.1,413.7z"/>
<g id="XMLID_123_">
	<path id="XMLID_124_" class="st1" d="M-106.3,356.7c-4.7-0.3-8.9,0.1-8.9,0.1c-5.2,0.5-10.4,1.5-10.4,1.5c2.7,5.2,0.5,8.4,0.5,8.4
		c-1-4.9-1.9-5.7-3.2-7.7c0,0-15.8-23-36.4-13.5c-15.5,7.1-15.1,31-13.8,44.4c0.4,4.5,1,7.8,1.1,8.9c0.2,2.1,1.2,6.2,2.4,10.4
		c1.6,5.9,2.8,8.9,3.9,11.8c0.7,1.7,1.2,2.8,2.4,5.7c0.1-0.6,1.1-13,21.5-20.5c0.6-0.2,1.2-0.4,1.8-0.6c4.3-1.4,8.4-2.3,12.3-2.6
		c15.6-1.4,27.2,4.5,29,6.3c0.2,0.1,0.3,0.1,0.3,0.1C-70.5,356.2-106.1,356.8-106.3,356.7z"/>
</g>
<g id="XMLID_85_">
	<path id="XMLID_109_" class="st0" d="M-88.8,458.2c-0.2,0.1-0.4,0.3-0.7,0.6c-0.3,0.2-0.6,0.4-1,0.7c-0.4,0.3-0.8,0.6-1.2,0.9
		s-0.9,0.7-1.5,1c-0.5,0.3-1.1,0.7-1.7,1.1c-0.3,0.2-0.6,0.4-0.9,0.6c-0.3,0.2-0.6,0.4-1,0.6c-0.7,0.4-1.4,0.8-2.1,1.2
		c-0.1,0.1-0.2,0.1-0.3,0.2c-0.1,0-0.2,0.1-0.3,0.1c-0.2,0.1-0.4,0.2-0.6,0.3c-0.4,0.2-0.8,0.4-1.2,0.6s-0.8,0.4-1.2,0.6
		s-0.8,0.4-1.3,0.6c-0.9,0.4-1.7,0.8-2.6,1.2c-3.6,1.5-7.5,2.8-11.5,3.8c-1,0.2-2,0.5-3,0.7c-1,0.2-2,0.4-3,0.5
		c-0.3,0-0.5,0.1-0.7,0.1s-0.5,0.1-0.8,0.1c-0.5,0.1-1,0.1-1.5,0.2c-0.5,0.1-1,0.1-1.5,0.2c-0.2,0-0.5,0.1-0.7,0.1s-0.5,0-0.7,0.1
		c-1,0.1-1.9,0.1-2.8,0.2c-0.9,0-1.8,0-2.7,0.1c-0.4,0-0.9,0-1.3,0c-0.4,0-0.9,0-1.3,0c-0.8,0-1.6,0-2.4-0.1c-0.1,0-0.2,0-0.3,0
		c-0.1,0-0.2,0-0.3,0c-0.2,0-0.4,0-0.6,0c-0.4,0-0.7-0.1-1.1-0.1c-0.7-0.1-1.4-0.1-2-0.2c-1.2-0.2-2.3-0.3-3.2-0.4
		c-0.2,0-0.4-0.1-0.6-0.1s-0.4-0.1-0.6-0.1c-0.3-0.1-0.6-0.1-0.9-0.2c-0.5-0.1-0.7-0.1-0.7-0.1l-1.9,10.5c0,0,0.3,0.1,0.8,0.1
		c0.3,0,0.6,0.1,1,0.2c0.2,0,0.4,0.1,0.6,0.1s0.5,0.1,0.7,0.1c1,0.1,2.3,0.3,3.7,0.5c0.7,0.1,1.5,0.1,2.3,0.2c0.4,0,0.8,0.1,1.2,0.1
		c0.2,0,0.4,0,0.6,0c0.1,0,0.2,0,0.3,0s0.2,0,0.3,0c0.9,0,1.8,0,2.7,0.1c0.5,0,1,0,1.4,0c0.5,0,1,0,1.5,0c1,0,2-0.1,3.1-0.1
		c1.1-0.1,2.1-0.2,3.2-0.2c0.3,0,0.5,0,0.8-0.1c0.3,0,0.6,0,0.8-0.1c0.6-0.1,1.1-0.1,1.7-0.2s1.1-0.1,1.7-0.2c0.3,0,0.6-0.1,0.9-0.1
		s0.6-0.1,0.9-0.1c1.1-0.2,2.3-0.4,3.4-0.6c1.1-0.3,2.3-0.5,3.4-0.8c4.6-1.1,9-2.6,13.1-4.3c1-0.4,2-0.9,3-1.3
		c0.5-0.2,1-0.4,1.4-0.7c0.5-0.2,0.9-0.5,1.4-0.7c0.4-0.2,0.9-0.5,1.3-0.7c0.2-0.1,0.4-0.2,0.6-0.3c0.1-0.1,0.2-0.1,0.3-0.2
		c0.1-0.1,0.2-0.1,0.3-0.2c0.8-0.5,1.6-0.9,2.4-1.4c0.4-0.2,0.8-0.4,1.1-0.7c0.4-0.2,0.7-0.4,1-0.7c0.7-0.4,1.3-0.8,1.9-1.2
		c0.6-0.4,1.1-0.8,1.7-1.1c0.5-0.4,1-0.7,1.4-1c0.4-0.3,0.8-0.6,1.1-0.8c0.3-0.2,0.6-0.5,0.8-0.6c0.4-0.3,0.7-0.5,0.7-0.5l-6.6-8.4
		C-88.2,457.8-88.4,457.9-88.8,458.2z"/>
	<path id="XMLID_90_" class="st1" d="M-156.1,471.9c-0.1,0-0.3-0.1-0.5-0.1c-0.3-0.1-0.7-0.2-1.2-0.3c-0.4-0.1-0.9-0.3-1.4-0.4
		c-0.3-0.1-0.5-0.1-0.8-0.2c-0.3-0.1-0.6-0.2-0.9-0.3c-1.2-0.4-2.5-0.8-4-1.4c-0.7-0.3-1.5-0.6-2.2-0.9c-0.8-0.3-1.5-0.7-2.4-1.1
		c-0.4-0.2-0.8-0.4-1.2-0.6c-0.4-0.2-0.8-0.4-1.2-0.6c-0.4-0.2-0.8-0.4-1.3-0.6c-0.2-0.1-0.4-0.2-0.6-0.3s-0.4-0.2-0.6-0.4
		c-0.8-0.5-1.7-1-2.6-1.5c-0.8-0.5-1.7-1.1-2.5-1.6c-0.2-0.1-0.4-0.3-0.6-0.4c-0.2-0.1-0.4-0.3-0.6-0.4c-0.4-0.3-0.8-0.6-1.3-0.9
		c-0.4-0.3-0.8-0.6-1.3-0.9c-0.4-0.3-0.8-0.6-1.2-1l-1.2-1l-0.6-0.5l-0.6-0.5c-0.8-0.7-1.6-1.3-2.3-2c-0.7-0.7-1.5-1.4-2.2-2.1
		c-0.2-0.2-0.4-0.3-0.5-0.5c-0.2-0.2-0.3-0.4-0.5-0.5c-0.3-0.4-0.7-0.7-1-1.1c-0.3-0.4-0.7-0.7-1-1c-0.3-0.4-0.6-0.7-0.9-1.1
		s-0.6-0.7-0.9-1c-0.1-0.2-0.3-0.3-0.4-0.5l-0.2-0.3l-0.2-0.3c-1.1-1.4-2.2-2.7-3-4c-0.4-0.6-0.9-1.2-1.3-1.8
		c-0.4-0.6-0.7-1.2-1.1-1.7c-0.3-0.5-0.7-1-1-1.5s-0.5-0.9-0.7-1.3c-0.5-0.8-0.8-1.4-1-1.8c-0.1-0.2-0.2-0.4-0.3-0.5
		c-0.1-0.1-0.1-0.2-0.1-0.2l-9.4,5c0,0,0,0.1,0.1,0.2c0.1,0.1,0.2,0.3,0.3,0.6c0.3,0.5,0.7,1.2,1.2,2.1c0.3,0.4,0.5,0.9,0.9,1.5
		c0.3,0.5,0.7,1.1,1.1,1.7c0.4,0.6,0.8,1.2,1.2,1.9c0.5,0.7,1,1.3,1.5,2.1c1,1.5,2.2,2.9,3.4,4.5c0.1,0.1,0.2,0.2,0.2,0.3
		c0.1,0.1,0.2,0.2,0.2,0.3c0.2,0.2,0.3,0.4,0.5,0.6c0.3,0.4,0.7,0.8,1,1.2c0.3,0.4,0.7,0.8,1.1,1.2c0.4,0.4,0.7,0.8,1.1,1.2
		s0.8,0.8,1.1,1.2c0.2,0.2,0.4,0.4,0.6,0.6s0.4,0.4,0.6,0.6c0.8,0.8,1.6,1.6,2.5,2.4c0.9,0.8,1.7,1.5,2.6,2.3l0.7,0.6l0.7,0.5
		l1.4,1.1c0.5,0.4,0.9,0.7,1.4,1.1c0.5,0.3,1,0.7,1.4,1c0.5,0.3,1,0.7,1.4,1c0.2,0.2,0.5,0.3,0.7,0.5c0.2,0.2,0.5,0.3,0.7,0.5
		c1,0.6,1.9,1.2,2.9,1.8s2,1.1,2.9,1.7c0.2,0.1,0.5,0.3,0.7,0.4c0.2,0.1,0.5,0.2,0.7,0.4c0.5,0.2,1,0.5,1.4,0.7
		c0.5,0.2,0.9,0.5,1.4,0.7c0.5,0.2,0.9,0.4,1.4,0.6c0.9,0.4,1.8,0.8,2.7,1.2c0.9,0.4,1.7,0.7,2.6,1c1.6,0.7,3.2,1.2,4.5,1.6
		c0.3,0.1,0.7,0.2,1,0.3s0.6,0.2,0.9,0.3c0.6,0.2,1.1,0.3,1.6,0.5c0.5,0.1,0.9,0.3,1.3,0.4c0.2,0.1,0.4,0.1,0.5,0.1
		c0.2,0,0.3,0.1,0.4,0.1c0.5,0.1,0.8,0.2,0.8,0.2l2.5-10.4c0,0-0.3-0.1-0.7-0.2C-155.8,472-156,472-156.1,471.9z"/>
	<path id="XMLID_89_" class="st0" d="M-208.2,427.7c-0.2-0.4-0.5-1.1-0.8-1.9c-0.2-0.4-0.3-0.9-0.5-1.4c-0.1-0.3-0.2-0.5-0.3-0.8
		c-0.1-0.3-0.2-0.6-0.3-0.9c-0.2-0.6-0.4-1.2-0.6-1.9c-0.1-0.3-0.2-0.7-0.3-1c-0.1-0.2-0.1-0.4-0.2-0.5c-0.1-0.2-0.1-0.4-0.2-0.6
		c-0.4-1.5-0.9-3.1-1.3-4.8c-0.1-0.4-0.2-0.9-0.3-1.3c-0.1-0.2-0.1-0.4-0.2-0.7c0-0.2-0.1-0.5-0.1-0.7c-0.2-0.9-0.3-1.9-0.5-2.8
		c-0.6-3.8-1-8-1-12.1c0-4.1,0.3-8.3,0.9-12.1c0.2-1,0.3-1.9,0.5-2.8c0.1-0.5,0.2-0.9,0.3-1.4c0.1-0.4,0.2-0.9,0.3-1.3
		c0.2-0.9,0.4-1.7,0.6-2.5c0.2-0.8,0.4-1.6,0.7-2.3c0.9-3,1.8-5.4,2.5-7.1c0.2-0.4,0.3-0.8,0.4-1.1c0.1-0.3,0.3-0.6,0.4-0.8
		c0.2-0.4,0.3-0.7,0.3-0.7l-9.7-4.3c0,0-0.1,0.3-0.3,0.8c-0.1,0.3-0.3,0.6-0.4,0.9c-0.1,0.4-0.3,0.8-0.5,1.3c-0.8,1.9-1.8,4.7-2.8,8
		c-0.2,0.8-0.5,1.7-0.7,2.6c-0.2,0.9-0.4,1.9-0.7,2.9c-0.1,0.5-0.2,1-0.3,1.5c-0.1,0.5-0.2,1-0.3,1.5c-0.2,1-0.4,2.1-0.6,3.2
		c-0.6,4.4-1,9-1,13.7c0,4.7,0.4,9.4,1.1,13.7c0.2,1.1,0.4,2.1,0.6,3.2c0,0.3,0.1,0.5,0.1,0.8c0.1,0.3,0.1,0.5,0.2,0.8
		c0.1,0.5,0.2,1,0.3,1.5c0.4,2,1,3.8,1.5,5.5c0.1,0.2,0.1,0.4,0.2,0.6c0.1,0.2,0.1,0.4,0.2,0.6c0.1,0.4,0.3,0.8,0.4,1.2
		c0.3,0.8,0.5,1.5,0.7,2.2c0.1,0.3,0.2,0.7,0.4,1c0.1,0.3,0.2,0.6,0.4,0.9c0.2,0.6,0.4,1.1,0.6,1.6c0.4,1,0.7,1.7,0.9,2.2
		c0.2,0.5,0.3,0.8,0.3,0.8l9.7-4.4C-207.9,428.3-208,428.1-208.2,427.7z"/>
	<path id="XMLID_88_" class="st1" d="M-205.6,359c0.1-0.1,0.1-0.3,0.3-0.5c0.2-0.4,0.6-1,1-1.8c0.2-0.4,0.5-0.8,0.7-1.3
		c0.3-0.5,0.6-1,1-1.5c0.3-0.5,0.7-1.1,1.1-1.7c0.4-0.6,0.8-1.2,1.3-1.8c0.9-1.3,1.9-2.6,3-4l0.2-0.3l0.2-0.3
		c0.1-0.2,0.3-0.3,0.4-0.5c0.3-0.3,0.6-0.7,0.9-1c0.3-0.4,0.6-0.7,0.9-1.1c0.3-0.3,0.7-0.7,1-1c0.3-0.4,0.7-0.7,1-1.1
		c0.2-0.2,0.3-0.4,0.5-0.5c0.2-0.2,0.4-0.3,0.5-0.5c0.7-0.7,1.5-1.4,2.2-2.1c0.8-0.7,1.5-1.3,2.3-2l0.6-0.5l0.6-0.5l1.2-1
		c0.4-0.3,0.8-0.6,1.2-1c0.4-0.3,0.8-0.6,1.3-0.9c0.5-0.3,0.8-0.6,1.3-0.9c0.2-0.1,0.4-0.3,0.6-0.4s0.4-0.3,0.6-0.4
		c0.9-0.5,1.7-1.1,2.5-1.6c0.9-0.5,1.7-1,2.6-1.5c0.2-0.1,0.4-0.2,0.6-0.4c0.2-0.1,0.4-0.2,0.6-0.3c0.4-0.2,0.8-0.4,1.3-0.6
		c0.4-0.2,0.8-0.4,1.2-0.6c0.4-0.2,0.8-0.4,1.2-0.6c0.8-0.4,1.6-0.7,2.4-1.1c0.8-0.3,1.5-0.6,2.2-0.9c1.4-0.6,2.8-1,4-1.4
		c0.3-0.1,0.6-0.2,0.9-0.3c0.3-0.1,0.6-0.2,0.8-0.2c0.5-0.1,1-0.3,1.4-0.4c0.4-0.1,0.8-0.2,1.2-0.3c0.2,0,0.3-0.1,0.5-0.1
		c0.1,0,0.3-0.1,0.4-0.1c0.5-0.1,0.7-0.2,0.7-0.2l-2.3-10.3c0,0-0.3,0.1-0.8,0.2c-0.1,0-0.3,0.1-0.4,0.1c-0.2,0-0.3,0.1-0.5,0.1
		c-0.4,0.1-0.8,0.2-1.3,0.4c-0.5,0.1-1,0.3-1.6,0.5c-0.3,0.1-0.6,0.2-0.9,0.3c-0.3,0.1-0.6,0.2-1,0.3c-1.4,0.5-2.9,0.9-4.5,1.6
		c-0.8,0.3-1.7,0.7-2.6,1c-0.9,0.4-1.8,0.8-2.7,1.2c-0.5,0.2-0.9,0.4-1.4,0.6s-0.9,0.5-1.4,0.7c-0.5,0.2-0.9,0.5-1.4,0.7
		c-0.2,0.1-0.5,0.2-0.7,0.4c-0.2,0.1-0.5,0.3-0.7,0.4c-1,0.5-1.9,1.1-2.9,1.7s-1.9,1.2-2.9,1.8c-0.2,0.2-0.5,0.3-0.7,0.5
		c-0.2,0.2-0.5,0.3-0.7,0.5c-0.5,0.3-0.9,0.7-1.4,1c-0.5,0.3-1,0.7-1.4,1c-0.5,0.4-0.9,0.7-1.4,1.1l-1.4,1.1l-0.7,0.5l-0.7,0.6
		c-0.9,0.8-1.8,1.5-2.6,2.3c-0.8,0.8-1.7,1.6-2.5,2.4c-0.2,0.2-0.4,0.4-0.6,0.6c-0.2,0.2-0.4,0.4-0.6,0.6c-0.4,0.4-0.8,0.8-1.1,1.2
		c-0.4,0.4-0.8,0.8-1.1,1.2c-0.4,0.4-0.7,0.8-1.1,1.2c-0.3,0.4-0.7,0.8-1,1.2c-0.2,0.2-0.3,0.4-0.5,0.6c-0.1,0.1-0.2,0.2-0.2,0.3
		c-0.1,0.1-0.2,0.2-0.2,0.3c-1.2,1.6-2.4,3.1-3.4,4.5c-0.5,0.7-1,1.4-1.5,2.1c-0.4,0.7-0.8,1.3-1.2,1.9c-0.4,0.6-0.7,1.2-1.1,1.7
		c-0.3,0.5-0.6,1-0.9,1.5c-0.5,0.9-0.9,1.6-1.2,2.1c-0.1,0.2-0.2,0.4-0.3,0.6c-0.4,0-0.4,0-0.4,0l9.4,5
		C-205.7,359.2-205.7,359.1-205.6,359z"/>
	<path id="XMLID_87_" class="st0" d="M-149.3,318.7c0.2,0,0.5-0.1,0.9-0.2c0.3,0,0.7-0.1,1.2-0.2c0.4-0.1,0.9-0.1,1.5-0.2
		c0.3,0,0.6-0.1,0.8-0.1c0.1,0,0.3,0,0.4-0.1c0.2,0,0.3,0,0.5,0c0.6,0,1.3-0.1,2-0.2c0.7,0,1.4-0.1,2.2-0.1c1.5,0,3.2-0.1,5,0
		c0.4,0,0.9,0,1.3,0c0.2,0,0.5,0,0.7,0c0.1,0,0.2,0,0.3,0s0.2,0,0.3,0c0.9,0.1,1.9,0.1,2.8,0.2c0.2,0,0.5,0,0.7,0.1
		c0.2,0,0.5,0.1,0.7,0.1c0.5,0.1,1,0.1,1.5,0.2s1,0.1,1.5,0.2c0.3,0,0.5,0.1,0.7,0.1s0.5,0.1,0.7,0.1c0.5,0.1,1,0.2,1.5,0.3
		c0.3,0,0.5,0.1,0.8,0.1l0.4,0.1l0.4,0.1c1,0.2,2,0.5,3,0.7c4,1,7.9,2.4,11.5,3.9c0.9,0.4,1.7,0.8,2.6,1.2c0.2,0.1,0.4,0.2,0.6,0.3
		s0.4,0.2,0.6,0.3c0.4,0.2,0.8,0.4,1.2,0.6c0.4,0.2,0.8,0.4,1.2,0.6c0.2,0.1,0.4,0.2,0.6,0.3c0.2,0.1,0.4,0.2,0.5,0.3
		c0.7,0.4,1.4,0.8,2.1,1.2c0.2,0.1,0.3,0.2,0.5,0.3s0.3,0.2,0.5,0.3c0.3,0.2,0.6,0.4,0.9,0.6c0.6,0.4,1.2,0.7,1.7,1.1
		c1,0.7,1.9,1.4,2.7,1.9c0.2,0.1,0.4,0.3,0.5,0.4c0.2,0.1,0.3,0.2,0.4,0.3c0.3,0.2,0.5,0.4,0.7,0.6c0.4,0.3,0.6,0.5,0.6,0.5l6.6-8.4
		c0,0-0.2-0.2-0.7-0.5c-0.2-0.2-0.5-0.4-0.8-0.6c-0.2-0.1-0.3-0.3-0.5-0.4s-0.4-0.3-0.6-0.4c-0.8-0.6-1.8-1.3-3-2.1
		c-0.6-0.4-1.2-0.8-1.9-1.2c-0.3-0.2-0.7-0.4-1-0.7c-0.2-0.1-0.4-0.2-0.5-0.3c-0.2-0.1-0.4-0.2-0.6-0.3c-0.8-0.4-1.6-0.9-2.4-1.4
		c-0.2-0.1-0.4-0.2-0.6-0.4c-0.2-0.1-0.4-0.2-0.6-0.3c-0.4-0.2-0.9-0.5-1.3-0.7c-0.4-0.2-0.9-0.5-1.4-0.7c-0.2-0.1-0.5-0.2-0.7-0.4
		c-0.2-0.1-0.5-0.2-0.7-0.3c-1-0.4-2-0.9-3-1.3c-4.1-1.7-8.5-3.2-13.1-4.4c-1.1-0.3-2.3-0.5-3.4-0.8l-0.4-0.1l-0.3-0.2
		c-0.3-0.1-0.6-0.1-0.9-0.2c-0.6-0.1-1.1-0.2-1.7-0.3c-0.3-0.1-0.6-0.1-0.9-0.2c-0.3,0-0.6-0.1-0.8-0.1c-0.6-0.1-1.1-0.1-1.7-0.2
		s-1.1-0.1-1.7-0.2c-0.3,0-0.6-0.1-0.8-0.1c-0.3,0-0.6,0-0.8-0.1c-1.1-0.1-2.2-0.2-3.2-0.2c-0.1,0-0.3,0-0.4,0c-0.1,0-0.3,0-0.4,0
		c-0.3,0-0.5,0-0.8,0c-0.5,0-1,0-1.5,0c-2-0.1-3.9,0-5.7,0c-0.9,0-1.7,0.1-2.5,0.1c-0.8,0.1-1.6,0.1-2.3,0.2c-0.2,0-0.4,0-0.5,0
		c-0.2,0-0.3,0-0.5,0.1c-0.3,0-0.7,0.1-1,0.1c-0.6,0.1-1.2,0.1-1.7,0.2s-1,0.1-1.4,0.2c-0.4,0.1-0.7,0.1-1,0.2
		c-0.5,0.1-0.8,0.1-0.8,0.1l1.8,10.5C-150.1,318.8-149.8,318.8-149.3,318.7z"/>
	<path id="XMLID_86_" class="st1" d="M-47.5,392.8c0-0.3,0-0.5,0-0.8c0-0.3,0-0.6,0-0.9c0-0.6-0.1-1.3-0.1-2
		c-0.1-0.7-0.1-1.5-0.2-2.3c-0.1-0.8-0.2-1.6-0.3-2.5c-0.1-0.9-0.2-1.8-0.4-2.7s-0.3-1.9-0.5-2.9c0-0.2-0.1-0.5-0.1-0.7
		c-0.1-0.2-0.1-0.5-0.2-0.8c-0.1-0.5-0.2-1-0.4-1.5c-0.1-0.5-0.2-1-0.4-1.6c0-0.1-0.1-0.3-0.1-0.4l-0.1-0.4
		c-0.1-0.3-0.1-0.5-0.2-0.8c-0.3-1.1-0.6-2.1-0.9-3.2c-0.4-1.1-0.7-2.2-1.1-3.3c-0.1-0.3-0.2-0.5-0.3-0.8c-0.1-0.3-0.2-0.5-0.3-0.8
		c-0.2-0.5-0.4-1.1-0.6-1.6c-0.2-0.5-0.4-1.1-0.7-1.6c-0.2-0.5-0.5-1.1-0.7-1.6c-0.9-2.2-2-4.2-3.1-6.3c-0.6-1-1.1-2-1.7-3
		c-0.3-0.5-0.6-1-0.9-1.4c-0.3-0.5-0.6-0.9-0.9-1.4c-0.3-0.5-0.6-0.9-0.9-1.4c-0.3-0.4-0.6-0.9-0.9-1.3c-0.3-0.4-0.6-0.9-0.9-1.3
		c-0.3-0.4-0.6-0.8-0.9-1.2c-0.6-0.8-1.2-1.6-1.8-2.3c-0.1-0.2-0.3-0.4-0.4-0.6c-0.1-0.2-0.3-0.4-0.4-0.5c-0.3-0.3-0.6-0.7-0.9-1
		c-0.6-0.7-1.1-1.3-1.7-1.9c-0.6-0.6-1.1-1.1-1.6-1.6s-0.9-1-1.4-1.4c-0.4-0.4-0.9-0.8-1.2-1.2c-0.7-0.7-1.3-1.3-1.7-1.6
		c-0.4-0.4-0.6-0.6-0.6-0.6l-7.1,8c0,0,0.2,0.2,0.6,0.5c0.4,0.3,0.9,0.8,1.5,1.4c0.3,0.3,0.7,0.7,1.1,1c0.4,0.4,0.8,0.8,1.2,1.3
		s0.9,0.9,1.4,1.5c0.5,0.5,1,1.1,1.5,1.7c0.3,0.3,0.5,0.6,0.8,0.9c0.1,0.2,0.3,0.3,0.4,0.5c0.1,0.2,0.3,0.3,0.4,0.5
		c0.5,0.7,1,1.3,1.6,2c0.3,0.3,0.5,0.7,0.8,1.1c0.3,0.4,0.5,0.7,0.8,1.1s0.5,0.8,0.8,1.2c0.3,0.4,0.5,0.8,0.8,1.2
		c0.3,0.4,0.5,0.8,0.8,1.2s0.5,0.8,0.8,1.3c0.5,0.9,1,1.7,1.5,2.6c0.9,1.8,1.9,3.6,2.7,5.5l0.6,1.4c0.2,0.5,0.4,1,0.6,1.4
		c0.2,0.5,0.4,1,0.6,1.4c0.1,0.2,0.2,0.5,0.3,0.7c0.1,0.2,0.2,0.5,0.3,0.7c0.3,1,0.6,1.9,1,2.9c0.3,1,0.5,1.9,0.8,2.8
		c0.1,0.2,0.1,0.5,0.2,0.7l0.1,0.3l0.1,0.3c0.1,0.5,0.2,0.9,0.3,1.4s0.2,0.9,0.3,1.3c0.1,0.2,0.1,0.4,0.2,0.7c0,0.2,0.1,0.4,0.1,0.7
		c0.2,0.9,0.3,1.7,0.5,2.5c0.2,0.8,0.2,1.6,0.3,2.4c0.1,0.8,0.2,1.5,0.3,2.2c0.1,0.7,0.1,1.4,0.2,2c0,0.6,0.1,1.2,0.1,1.8
		c0,0.3,0,0.5,0,0.8c0,0.2,0,0.5,0,0.7c0,1.8,0.1,2.8,0.1,2.8s0,1-0.1,2.8c0,0.2,0,0.5,0,0.7c0,0.2,0,0.5,0,0.8
		c0,0.5-0.1,1.1-0.1,1.8c0,0.6-0.1,1.3-0.2,2c-0.1,0.7-0.2,1.4-0.3,2.2c-0.1,0.8-0.2,1.6-0.3,2.4c-0.1,0.8-0.3,1.7-0.5,2.5
		c0,0.2-0.1,0.4-0.1,0.7c-0.1,0.2-0.1,0.4-0.2,0.7c-0.1,0.4-0.2,0.9-0.3,1.3c-0.1,0.5-0.2,0.9-0.3,1.4l-0.1,0.3l-0.1,0.3
		c-0.1,0.2-0.1,0.5-0.2,0.7c-0.3,0.9-0.5,1.9-0.8,2.8s-0.6,1.9-1,2.9c-0.1,0.2-0.2,0.5-0.3,0.7c-0.1,0.2-0.2,0.5-0.3,0.7
		c-0.2,0.5-0.4,1-0.6,1.4c-0.2,0.5-0.4,1-0.6,1.4l-0.6,1.4c-0.8,1.9-1.8,3.7-2.7,5.5c-0.5,0.9-1,1.8-1.5,2.6
		c-0.2,0.4-0.5,0.8-0.8,1.3c-0.3,0.4-0.5,0.8-0.8,1.2s-0.5,0.8-0.8,1.2s-0.5,0.8-0.8,1.2s-0.5,0.8-0.8,1.1c-0.3,0.4-0.5,0.7-0.8,1.1
		c-0.5,0.7-1.1,1.4-1.6,2c-0.1,0.2-0.3,0.3-0.4,0.5c-0.1,0.2-0.3,0.3-0.4,0.5c-0.3,0.3-0.5,0.6-0.8,0.9c-0.5,0.6-1,1.2-1.5,1.7
		s-0.9,1-1.4,1.5c-0.4,0.5-0.8,0.9-1.2,1.3s-0.8,0.7-1.1,1c-0.7,0.6-1.2,1.1-1.5,1.4c-0.4,0.3-0.6,0.5-0.6,0.5l7.1,8
		c0,0,0.2-0.2,0.6-0.6c0.4-0.4,1-0.9,1.7-1.6c0.4-0.4,0.8-0.7,1.2-1.2c0.4-0.4,0.9-0.9,1.4-1.4s1-1.1,1.6-1.6
		c0.5-0.6,1.1-1.2,1.7-1.9c0.3-0.3,0.6-0.7,0.9-1c0.1-0.2,0.3-0.3,0.4-0.5c0.1-0.2,0.3-0.4,0.4-0.6c0.6-0.7,1.2-1.5,1.8-2.3
		c0.3-0.4,0.6-0.8,0.9-1.2c0.3-0.4,0.6-0.8,0.9-1.3c0.3-0.4,0.6-0.9,0.9-1.3c0.3-0.4,0.6-0.9,0.9-1.4c0.3-0.5,0.6-0.9,0.9-1.4
		c0.3-0.5,0.6-0.9,0.9-1.4c0.6-1,1.1-2,1.7-3c1.1-2,2.2-4.1,3.1-6.3c0.2-0.5,0.5-1.1,0.7-1.6s0.4-1.1,0.7-1.6
		c0.2-0.5,0.4-1.1,0.6-1.6c0.1-0.3,0.2-0.5,0.3-0.8c0.1-0.3,0.2-0.5,0.3-0.8c0.4-1.1,0.7-2.2,1.1-3.3c0.3-1.1,0.6-2.2,0.9-3.2
		c0.1-0.3,0.1-0.5,0.2-0.8l0.1-0.4c0-0.1,0.1-0.3,0.1-0.4c0.1-0.5,0.2-1,0.4-1.6c0.1-0.5,0.2-1,0.4-1.5c0.1-0.3,0.1-0.5,0.2-0.8
		c0.1-0.2,0.1-0.5,0.1-0.7c0.2-1,0.4-2,0.5-2.9c0.2-0.9,0.3-1.8,0.4-2.7c0.1-0.9,0.2-1.7,0.3-2.5c0.1-0.8,0.1-1.6,0.2-2.3
		c0.1-0.7,0.1-1.4,0.1-2c0-0.3,0-0.6,0-0.9c0-0.3,0-0.6,0-0.8c0-2,0.1-3.2,0.1-3.2S-47.4,394.9-47.5,392.8z"/>
	<path id="XMLID_112_" class="st0" d="M-90.5,338.1c-15.2-11.9-34.8-17.8-54.1-15.6c-17.5,2-33.6,10.1-45.7,22.8
		c-7,7.3-12.6,16.4-15.9,26.1c-2.7,8-4.3,16.5-4.2,25c0.2,8.9,1.6,17.8,4.9,26.2c3.7,9.4,9.1,17.7,16.1,25
		c5.8,6.1,12.9,11.1,20.4,14.8c8.7,4.3,18.1,6.6,27.8,7.4c18.7,1.4,38.1-5,52.3-17.2c8.1-7,14.9-15.5,19.4-25.2
		c3.9-8.5,6.1-17.5,6.8-26.8c1.4-18.9-5.3-38.1-17.5-52.5C-83.3,344.5-86.8,341.1-90.5,338.1C-91.1,337.7-90.3,338.3-90.5,338.1z
		 M-83.2,361.1c8.5,13,12,28.9,9.7,44.3c-2.6,17.5-12.6,32.8-26.9,43c-13.2,9.4-30.6,13.1-46.5,10.4c-14.1-2.4-26.9-9.4-36.6-19.9
		c-6.1-6.6-10.6-14.5-13.5-23c-2.4-7.2-3.3-14.8-3.1-22.3c0.2-7.7,2-15.4,5-22.5c3.5-8.3,8.8-15.6,15.3-21.8
		c11.6-11.1,28.1-17.5,44.1-17c7.9,0.2,15.6,1.6,23,4.6c7.8,3.2,14.9,7.8,20.9,13.7C-88.6,353.8-85.7,357.4-83.2,361.1
		C-81.1,364.3-85.3,357.9-83.2,361.1z"/>
</g>
<g>
	<path class="st0" d="M28.6,362.9l-11.4,53.4c1.8,1.3,3.6,1.9,5.4,1.9c11.3,0,18.3-22.6,18.3-41.9c0-12.9-5.6-18-13.9-18
		c-14.2,0-24.9,8.7-24.9,23.1c0,4.9,1.2,5.6,1.3,6.5c-6.3,0-10.2-2.4-10.2-8.8c0-13,16.1-25.1,35.4-25.1c18.5,0,25.4,12.8,25.4,27.4
		c0,21.9-12.3,45.2-26.4,45.2c-3.6,0-7.5-1.5-11.6-5l-0.8,3.8H1.6l12.9-60.5L28.6,362.9z"/>
	<path class="st0" d="M99.4,377.8L90,421.9c5.8-2.1,9.3-5.3,12-13.6h4c-3.7,12.6-10.9,16.2-16.8,17.8l-1.4,6.9
		c-2.9,13.6-10.8,16.2-17.1,16.2c-5.8,0-10.7-3-10.7-9.2c0-8,8.4-12,15.5-14.2l1.1-5.1c-4,4.5-8.2,5.3-11.4,5.3
		c-5.7,0-10.2-3.4-10.2-11.4c0-1.8,0.3-3.9,0.8-6.2l6.5-30.5h13.7l-6.9,32.4c-0.2,0.8-0.3,1.6-0.3,2.4c0,2.2,0.7,4.2,2.9,4.2
		c3.5,0,6-3.3,7.4-7.8l6.7-31.1H99.4z M68.4,441.7c2,0,4.3-2.9,5.5-8.5l0.6-2.8c-4.9,1.8-9.3,4.3-9.3,8.1
		C65.2,439.9,66.3,441.7,68.4,441.7z"/>
	<path class="st0" d="M126,386c-3.4,0-6,4-7.4,8.8l-6.5,30.5H98.4l10.1-47.6h13.7l-1,4.9c4-4.6,8.2-5.3,11.1-5.3
		c6.1,0,10.6,3.1,10.6,10.8c0,7.7-4.6,19.2-4.6,24.5c0,2.4,1,4,3.8,4c4.2,0,5.9-3.4,8-8.4h4c-5.3,15.6-12.7,17.6-17.7,17.6
		c-8.3,0-11.2-5.3-11.2-10.8c0-6.5,4.3-18.2,4.3-24.3C129.4,387.8,128.3,386,126,386z"/>
	<path class="st0" d="M195.7,377.8l-6.9,32.4c-0.3,1.2-0.4,2.2-0.4,3c0,2.7,1.2,4.1,3.9,4.1c3.7,0,6.3-4.2,7.7-8.9h4
		c-5.4,15.5-14,17.6-19.1,17.6c-5.3,0-8.8-3-9.3-8.8c-3,4.4-7.4,8.8-14.2,8.8c-6.5,0-12.7-4-12.7-15.3c0-12.8,7.9-33.3,24.5-33.3
		c5.4,0,7.7,2.1,7.7,4.9v0.7l1-5H195.7z M162.9,409.3c0,7.3,3,7.4,4.8,7.4c2.8,0,6.8-2.9,7.9-8.4l4.6-21.5c0-1.1-0.9-3.6-3.9-3.6
		C168.1,383.2,162.9,400.3,162.9,409.3z"/>
	<path class="st0" d="M247.6,386c-3.4,0-6,4-7.4,8.8l-6.5,30.5H220l6.9-32.8c0.2-0.8,0.3-1.5,0.3-2.4c0-2.1-0.8-4.2-2.9-4.2
		c-3.7,0-6.3,4.1-7.7,8.8l-6.5,30.5h-13.7l10.1-47.6h13.7l-1,4.9c4-4.6,8.3-5.4,11.6-5.4c5,0,8.8,2.3,9.8,8.2
		c4.6-7,9.7-8.1,13.2-8.1c6.1,0,10.6,3.1,10.6,10.8c0,7.7-4.6,19.2-4.6,24.5c0,2.4,1,4,3.8,4c4.2,0,5.9-3.4,8-8.4h4
		c-5.3,15.6-12.7,17.6-17.7,17.6c-8.3,0-11.2-5.3-11.2-10.8c0-6.5,4.3-18.2,4.3-24.3C251,387.8,249.9,386,247.6,386z"/>
	<path class="st0" d="M291.9,377.8l-6.9,32.4c-0.3,1.2-0.4,2.2-0.4,3c0,2.7,1.2,3.5,3.9,3.5c3.7,0,7.1-3.6,8.6-8.4h4
		c-5.4,15.5-14.8,17.6-20,17.6c-5.7,0-10.2-3.4-10.2-11.4c0-1.8,0.3-3.9,0.8-6.2l6.5-30.5H291.9z M287.6,357.5
		c4.2,0,7.6,3.4,7.6,7.6c0,4.2-3.4,7.5-7.6,7.5s-7.5-3.3-7.5-7.5C280.1,360.9,283.4,357.5,287.6,357.5z"/>
	<path class="st0" d="M324.1,385.8c0-2.3-0.8-3.9-2.6-3.9c-6.1,0-12.3,17.8-12.3,27.2c0,5.9,2.5,7.9,5.7,7.9c3.7,0,8.5-2.8,11.4-5.2
		c-2,10.8-8.8,14.1-16.5,14.1c-8.9,0-14.7-4.4-14.7-15.1c0-11,6.3-33.9,25.6-33.9c8.5,0,10.6,4.4,10.6,8.8c0,4.9-2.5,6.9-5,6.9
		c-1.1,0-2.3-0.4-3.3-1.1C323.7,389.5,324.1,387.5,324.1,385.8z"/>
	<path class="st0" d="M400,409.2c-5,12.8-18.5,17.7-27.1,17.7c-14.1,0-20.8-6.3-20.8-23.4c0-17.2,8.3-49.5,33.2-49.5
		c8.9,0,15.9,3.5,15.9,12.8c0,5-1.8,8.8-6.7,8.8c-1.5,0-3.6-0.4-5.4-2.5c2.3-1.1,4.4-5.1,4.4-8.8c0-3-1.5-5.8-5.8-5.8
		c-10.5,0-19.8,25-19.8,44.4c0,8.8,2.3,14.8,11.4,14.8c7.4,0,14.2-3.6,18.6-9.5L400,409.2z"/>
	<path class="st0" d="M417.7,377.8l-1.2,5.9c3.3-2.9,6.9-5.9,11.5-5.9c4.3,0,6.6,3.5,6.6,7.1c0,3.3-2.2,6.9-6.9,6.9
		c-5.3,0-2.7-6.3-5.5-6.3c-2.9,0-4.6,1.4-6.9,3.6l-7.6,36.2h-13.7l10.1-47.6H417.7z"/>
	<path class="st0" d="M470.2,392.1c0.4,0.2,0.8,0.2,1,0.2c4.4,0,10.6-2.9,14.7-5.7l0.9,2.6c-3.6,3.9-9.9,6.8-16.8,7.9
		c-1.5,17.6-11,28.6-22.7,28.6c-8.9,0-15.2-4.2-15.2-15c0-10.9,6.5-33.8,26.1-33.8C466.2,376.9,470.2,382.1,470.2,392.1z M462,397.4
		c-2-0.5-2.6-2.1-2.6-4c0-2.7,1.2-4.4,3-5.1c-0.2-4-1.1-5.5-3.6-5.5c-6.8,0-12.7,17.4-12.7,26.7c0,6.3,1.2,7.7,4.9,7.7
		C455.6,417.2,460.5,408.6,462,397.4z"/>
	<path class="st0" d="M495.2,377.8l-6.9,32.4c-0.2,0.8-0.3,1.6-0.3,2.4c0,2.2,0.7,4.2,2.9,4.2c3.7,0,6.2-3.6,7.6-8.4l6.5-30.5h13.7
		l-6.9,32.4c-0.3,1.3-0.5,2.6-0.5,3.4c0,1.9,1,3.1,3.2,3.1c9.3,0,16.5-21.3,16.5-31.8c-0.3,0.7-2.3,1-3,1c-2.3,0-3.4-2.8-3.4-4.9
		c0-2.9,1.9-5.1,5.9-5.1c4.6,0,6,4.1,6,8.3c0,15.2-7.7,41.8-27.1,41.8c-6.2,0-10.3-2.7-11.4-8c-4.7,6.9-9.7,8-13.5,8
		c-5.7,0-10.2-3.4-10.2-11.4c0-1.8,0.3-3.9,0.8-6.2l6.5-30.5H495.2z"/>
	<path class="st0" d="M561.9,386c-3.4,0-6,4-7.4,8.8l-6.5,30.5h-13.7l10.1-47.6h13.7l-1,4.9c4-4.6,8.2-5.3,11.1-5.3
		c6.1,0,10.6,3.1,10.6,10.8c0,7.7-4.6,19.2-4.6,24.5c0,2.4,1,4,3.8,4c1.6,0,2.6-0.2,3.1-0.6c-0.9,6.9-5.4,9.8-10.5,9.8
		c-7.3,0-9.6-5.3-9.6-10.8c0-6.5,4.3-18.2,4.3-24.3C565.3,387.8,564.2,386,561.9,386z"/>
	<path class="st0" d="M711.5,358.3l-4.5,21.1h0.6c7.6,0,13.7-8.3,13.7-15.4c0-5.4-3.5-10.3-12.6-10.3c-11.1,0-23.8,7.4-23.8,23.1
		c0,4.9,1.2,5.6,1.3,6.5c-6.3,0-10.2-2.4-10.2-8.8c0-13.1,16.6-25.2,34.5-25.2c14,0,20.3,7.3,20.3,15.1c0,5.6-3.3,11.6-9.5,15.1
		c8.1,1.6,11.2,8.2,11.2,15.3c0,9.1-4.9,27.4-20.8,27.4c-4.1,0-9.4-1.2-9.4-7c0-1.5,0.4-3.3,1.2-5.5c2.4,2.5,4.2,3.4,6.4,3.4
		c6.9,0,9.4-9.9,9.4-17.1c0-6.7-2.1-12.1-9-12.1c-0.8,0-2.7,0.1-4.4,0.3l-7.8,36.4h-13.7l12.9-60.5L711.5,358.3z"/>
	<path class="st0" d="M756.1,373.1l-1.2,5.9c3.3-2.9,6.9-5.9,11.5-5.9c4.3,0,6.6,3.5,6.6,7.1c0,3.3-2.2,6.9-6.9,6.9
		c-5.3,0-2.7-6.3-5.5-6.3c-2.9,0-4.6,1.4-6.9,3.6l-7.6,36.2h-13.7l10.1-47.6H756.1z"/>
	<path class="st0" d="M791.9,373.1l-6.9,32.4c-0.3,1.2-0.4,2.2-0.4,3c0,2.7,1.2,3.5,3.9,3.5c3.7,0,7.1-3.6,8.6-8.4h4
		c-5.4,15.5-14.8,17.6-20,17.6c-5.7,0-10.2-3.4-10.2-11.4c0-1.8,0.3-3.9,0.8-6.2l6.5-30.5H791.9z M787.6,352.9
		c4.2,0,7.6,3.4,7.6,7.6c0,4.2-3.4,7.5-7.6,7.5c-4.2,0-7.5-3.3-7.5-7.5C780.1,356.3,783.4,352.9,787.6,352.9z"/>
	<path class="st0" d="M846.8,354.1l-10.9,51.4c-0.3,1.2-0.4,2.2-0.4,3c0,2.7,1.2,3.5,3.9,3.5c3.7,0,6.3-3.6,7.7-8.4h4
		c-5.4,15.5-14,17-19.1,17c-5.1,0-8.6-2.9-9.3-8.2c-2.9,4.4-7.3,8.8-14.1,8.8c-6.5,0-12.7-4-12.7-15.3c0-12.8,7.9-33.3,24.5-33.3
		c5.4,0,7.7,2.1,7.7,4.9v0.4l4.7-21.9L846.8,354.1z M822.6,403.7l4.7-21.8c-0.2-1.1-1-3.3-3.9-3.3c-8.1,0-13.3,17.1-13.3,26.1
		c0,7.3,3,7.4,4.8,7.4c2.7,0,6.6-2.7,7.8-7.9V403.7z"/>
	<path class="st0" d="M892.8,373.1l-9.4,44.2c5.8-2.1,9.3-5.3,12-13.6h4c-3.7,12.6-10.9,16.2-16.8,17.8l-1.4,6.9
		c-2.9,13.6-10.8,16.2-17.1,16.2c-5.8,0-10.7-3-10.7-9.2c0-8,8.4-12,15.5-14.2l1.1-5c-2.8,2.9-6.5,5.2-11.4,5.2
		c-6.5,0-12.7-4-12.7-15.3c0-12.8,7.9-33.3,24.5-33.3c5.4,0,7.7,2.1,7.7,4.9v0.6l1-4.9H892.8z M861.8,437.1c2,0,4.3-2.9,5.5-8.5
		l0.6-2.8c-4.9,1.8-9.3,4.3-9.3,8.1C858.5,435.3,859.7,437.1,861.8,437.1z M860,404.6c0,7.3,3,7.4,4.8,7.4c2.6,0,6.3-2.6,7.6-7.4
		l4.9-22.6c-0.1-1-0.9-3.5-3.9-3.5C865.2,378.5,860,395.7,860,404.6z"/>
	<path class="st0" d="M914,412.2c3.6,0,8.2-2.4,11.2-5c-2,10.8-8.9,14.1-16.5,14.1c-8.8,0-14.7-4.4-14.7-15.1
		c0-10.9,6.2-33.9,25.7-33.9c8.5,0,10.5,4.4,10.5,9.1c0,11-10.5,19.4-21.9,20.1c-0.1,1-0.2,2-0.2,2.9
		C908.1,410.3,910.7,412.2,914,412.2z M920.5,377.3c-4.8,0-9.5,10.6-11.5,19.6c7.4-0.4,13.9-7.7,13.9-15.7
		C922.9,378.8,922.3,377.3,920.5,377.3z"/>
	<g>
		<path class="st1" d="M663.5,387.1c0,4.7-5.8,10.6-12.9,11.8c-6.4,23.2-18.1,23.7-26.4,23.7c-11.7,0-17.5-8.4-17.5-17.1
			c0-8.1,5.1-16.6,15.3-18.7c-5.8-3.1-8.4-8.1-8.4-12.9c0-7.7,6.8-15.3,18.8-15.3c7.9,0,15.6,3.1,15.6,11.4c0,4.5-1.6,7.8-5.9,7.8
			c-1.4,0-3.2-0.3-4.8-2.2c2.1-0.6,3.7-4.8,3.7-6.9c0-1.4-0.2-6.3-5.6-6.3c-6.2,0-10.3,4.7-10.3,10.4c0,4.9,3.2,10.4,11.2,14
			c-10.8,4.4-14.7,11.2-14.7,17c0,6.2,4.5,11.3,9.9,11.3c5.8,0,12.7-3.6,15.3-15.9c-2.1-0.2-4.1-0.5-6-0.5c-3.6,0-6.4,1.3-8,3.8
			l-0.6-0.1c1.7-6.9,7.6-11.9,16.4-11.9c2.4,0,4.3,0.4,6.4,0.4c3.1,0,6.6-1.1,8.1-3.6H663.5z"/>
	</g>
</g>
</svg>
