<?xml version="1.0" encoding="utf-8"?>
<!-- Generator: Adobe Illustrator 19.0.0, SVG Export Plug-In . SVG Version: 6.00 Build 0)  -->
<svg version="1.1" id="Layer_1" xmlns="http://www.w3.org/2000/svg" xmlns:xlink="http://www.w3.org/1999/xlink" x="0px" y="0px"
	 viewBox="0 0 188.9 188.9" style="enable-background:new 0 0 188.9 188.9;" xml:space="preserve">
<style type="text/css">
	.st0{fill:#1A81DD;}
	.st1{fill:#312AE2;}
</style>
<path id="XMLID_125_" class="st0" d="M125.9,111.6L125.9,111.6C125.9,111.6,125.9,111.6,125.9,111.6c0-0.1,0-0.1,0-0.2
	c0,0-0.1,0-0.2-0.1c-1.8-1.8-12.7-7.7-27.4-6.3c-3.6,0.3-7.6,1.2-11.6,2.6c-0.6,0.2-1.2,0.4-1.7,0.6c-19.4,7.6-20.2,20.9-20.3,21.2
	l0,0c1,2.6,2.2,5.6,3.6,8.5l0,0l0,0c3.6,7.4,8.2,13.5,11.6,7.1c6-11.1,6.4-13.3,8.2-17.9c1.9-4.5,2.2-6.9,7.5-0.3
	c1.9,2.4,28.9,29.3,28.8,15.6C124.3,129.7,124.9,119.6,125.9,111.6z"/>
<g id="XMLID_123_">
	<path id="XMLID_124_" class="st1" d="M124.7,54.6c-4.7-0.3-8.9,0.1-8.9,0.1c-5.2,0.5-10.4,1.5-10.4,1.5c2.7,5.2,0.5,8.4,0.5,8.4
		c-1-4.9-1.9-5.7-3.2-7.7c0,0-15.8-23-36.4-13.5c-15.5,7.1-15.1,31-13.8,44.4c0.4,4.5,1,7.8,1.1,8.9c0.2,2.1,1.2,6.2,2.4,10.4
		c1.6,5.9,2.8,8.9,3.9,11.8c0.7,1.7,1.2,2.8,2.4,5.7c0.1-0.6,1.1-13,21.5-20.5c0.6-0.2,1.2-0.4,1.8-0.6c4.3-1.4,8.4-2.3,12.3-2.6
		c15.6-1.4,27.2,4.5,29,6.3c0.2,0.1,0.3,0.1,0.3,0.1C160.5,54.1,124.9,54.7,124.7,54.6z"/>
</g>
<path id="XMLID_82_" class="st0" d="M-374.7,66.2c8.3,1.5,16.6,1.6,24.9,0.5c9.1-1.2,17.9-4.3,26-8.4c4.1-2.1,7.9-4.7,11.5-7.5
	c1.8,2.3,3.6,4.6,5.4,6.9c0.3,0.4,0.9,0.9,1,1.3c0,0.1,0.2,0.1,0.2,0.2c0,0.2-1,0.8-1.2,0.9c-2.6,2-5.3,3.8-8.1,5.5
	c-6.1,3.5-12.4,6.5-19.2,8.6c-6.7,2.1-13.6,3.3-20.6,3.8c-7.3,0.5-14.7,0.1-21.9-1.2C-375.9,73.2-375.3,69.7-374.7,66.2z"/>
<path id="XMLID_79_" class="st1" d="M-430,25.8c2,4.1,4.7,7.9,7.5,11.4c2.8,3.6,5.9,7,9.3,10c6.1,5.4,12.8,9.9,20.3,13.3
	c4.4,2,9.1,3.7,13.8,4.7c-0.4,1.7-0.8,3.3-1.2,5c-0.3,1.2-0.6,2.3-0.8,3.5c-0.1,0.3-0.2,1.7-0.5,1.9c-0.2,0.1-1-0.2-1.3-0.3
	c-1.1-0.3-2.2-0.6-3.3-0.9c-2.1-0.6-4.2-1.3-6.3-2.1c-4.3-1.7-8.4-3.6-12.4-5.9c-6.3-3.6-12.1-8-17.4-13.1
	c-6.5-6.2-11.9-13.4-16.3-21.2c-0.1-0.2-0.7-1-0.6-1.3c0.1-0.1,0.6-0.3,0.7-0.4c1.1-0.6,2.1-1.1,3.2-1.7
	C-433.6,27.7-431.8,26.8-430,25.8z"/>
<path id="XMLID_78_" class="st0" d="M-432.5-43.1c-5.1,11.2-7.3,23.8-6.6,36.1c0.4,6.5,1.5,12.9,3.4,19.1c0.8,2.7,1.8,5.3,2.9,7.9
	c0.1,0.2,0.6,1.1,0.6,1.2c0,0-0.2,0.1-0.2,0.1c-0.3,0.3-1,0.5-1.4,0.6c-2.7,1.2-5.5,2.5-8.2,3.7c-5.6-12.5-8.4-26.2-7.9-39.8
	c0.3-7.2,1.3-14.3,3.3-21.2c0.8-3,1.8-5.9,3-8.8c0.3-0.7,0.5-1.3,0.8-2c0.1-0.2,0.4-1.1,0.5-1.2c0.2-0.1,0.7,0.3,0.9,0.4
	C-438.4-45.7-435.5-44.4-432.5-43.1z"/>
<path id="XMLID_76_" class="st1" d="M-379.2-87.5c-16.4,3.8-31.7,13.5-42.3,26.6c-3.2,4-6.3,8.3-8.6,12.8c-1.5-0.8-3-1.6-4.5-2.4
	c-1.1-0.6-2.1-1.1-3.2-1.7c-0.3-0.2-1.6-0.6-1.7-0.9c-0.1-0.2,0.5-1,0.6-1.2c0.6-1,1.1-2,1.7-3c1.1-1.9,2.4-3.7,3.7-5.5
	c2.7-3.8,5.7-7.3,8.9-10.7c11.2-11.7,25.9-20,41.4-24.1c0.3-0.1,1.4-0.3,1.4-0.3s0.2,0.7,0.2,0.8c0.3,1.2,0.6,2.4,0.9,3.5
	C-380.2-91.5-379.7-89.5-379.2-87.5z"/>
<path id="XMLID_73_" class="st0" d="M-311.9-72.8c-13.9-10.9-31.2-17.1-48.9-16.9c-4.5,0-9,0.4-13.4,1.2c-0.5-2.9-1-5.9-1.5-8.8
	c-0.1-0.4-0.3-1.6-0.3-1.6s1.6-0.5,2.1-0.5c3.3-0.5,6.6-0.8,9.9-0.9c13.7-0.3,27.2,2,39.7,7.6c6.8,3.1,13.2,6.9,19.1,11.5
	C-307.5-78.4-309.7-75.6-311.9-72.8z"/>
<path id="XMLID_54_" class="st1" d="M-271.4-14.4c0-0.3,0-0.5,0-0.8c0-0.3,0-0.6,0-0.9c0-0.6-0.1-1.3-0.1-2
	c-0.1-0.7-0.1-1.5-0.2-2.3c-0.1-0.8-0.2-1.6-0.3-2.5c-0.1-0.9-0.2-1.8-0.4-2.7c-0.2-0.9-0.3-1.9-0.5-2.9c0-0.2-0.1-0.5-0.1-0.8
	c-0.1-0.2-0.1-0.5-0.2-0.8c-0.1-0.5-0.2-1-0.4-1.5c-0.1-0.5-0.2-1-0.4-1.6c0-0.1-0.1-0.3-0.1-0.4l-0.1-0.4c-0.1-0.3-0.1-0.5-0.2-0.8
	c-0.3-1.1-0.6-2.1-0.9-3.2c-0.4-1.1-0.7-2.2-1.1-3.3c-0.1-0.3-0.2-0.6-0.3-0.8c-0.1-0.3-0.2-0.5-0.3-0.8c-0.2-0.5-0.4-1.1-0.6-1.6
	c-0.2-0.5-0.4-1.1-0.7-1.6c-0.2-0.5-0.5-1.1-0.7-1.6c-0.9-2.2-2-4.2-3.1-6.3c-0.6-1-1.1-2-1.7-3c-0.3-0.5-0.6-1-0.9-1.4
	c-0.3-0.5-0.6-0.9-0.9-1.4c-0.3-0.5-0.6-0.9-0.9-1.4c-0.3-0.4-0.6-0.9-0.9-1.3c-0.3-0.4-0.6-0.9-0.9-1.3c-0.3-0.4-0.6-0.8-0.9-1.2
	c-0.6-0.8-1.2-1.6-1.8-2.3c-0.1-0.2-0.3-0.4-0.4-0.6c-0.1-0.2-0.3-0.4-0.4-0.5c-0.3-0.3-0.6-0.7-0.9-1c-0.6-0.7-1.1-1.3-1.7-1.9
	c-0.6-0.6-1.1-1.1-1.6-1.7c-0.5-0.5-1-1-1.4-1.4c-0.4-0.4-0.9-0.8-1.2-1.2c-0.7-0.7-1.3-1.3-1.7-1.6c-0.4-0.4-0.6-0.6-0.6-0.6
	l-7.1,8c0,0,0.2,0.2,0.6,0.5c0.4,0.3,0.9,0.8,1.5,1.5c0.3,0.3,0.7,0.7,1.1,1c0.4,0.4,0.8,0.8,1.2,1.3c0.4,0.5,0.9,0.9,1.4,1.5
	c0.5,0.5,1,1.1,1.5,1.7c0.3,0.3,0.5,0.6,0.8,0.9c0.1,0.2,0.3,0.3,0.4,0.5c0.1,0.2,0.3,0.3,0.4,0.5c0.5,0.7,1.1,1.3,1.6,2
	c0.3,0.3,0.5,0.7,0.8,1.1c0.3,0.4,0.5,0.7,0.8,1.1c0.3,0.4,0.5,0.8,0.8,1.2c0.3,0.4,0.5,0.8,0.8,1.2c0.3,0.4,0.5,0.8,0.8,1.2
	c0.3,0.4,0.5,0.8,0.8,1.3c0.5,0.9,1,1.7,1.5,2.6c0.9,1.8,1.9,3.6,2.7,5.5l0.6,1.4c0.2,0.5,0.4,1,0.6,1.4c0.2,0.5,0.4,1,0.6,1.4
	c0.1,0.2,0.2,0.5,0.3,0.7c0.1,0.2,0.2,0.5,0.3,0.7c0.3,1,0.7,1.9,1,2.9c0.3,1,0.5,1.9,0.8,2.8c0.1,0.2,0.1,0.5,0.2,0.7l0.1,0.3
	l0.1,0.3c0.1,0.5,0.2,0.9,0.3,1.4c0.1,0.5,0.2,0.9,0.3,1.4c0.1,0.2,0.1,0.4,0.2,0.7c0,0.2,0.1,0.4,0.1,0.7c0.2,0.9,0.3,1.7,0.5,2.6
	c0.2,0.8,0.2,1.6,0.3,2.4c0.1,0.8,0.2,1.5,0.3,2.2c0.1,0.7,0.1,1.4,0.2,2c0,0.6,0.1,1.2,0.1,1.8c0,0.3,0,0.5,0,0.8
	c0,0.3,0,0.5,0,0.7c0,1.8,0.1,2.8,0.1,2.8s0,1-0.1,2.8c0,0.2,0,0.5,0,0.7c0,0.3,0,0.5,0,0.8c0,0.5-0.1,1.1-0.1,1.8
	c0,0.6-0.1,1.3-0.2,2c-0.1,0.7-0.2,1.4-0.3,2.2c-0.1,0.8-0.2,1.6-0.3,2.4c-0.1,0.8-0.3,1.7-0.5,2.6c0,0.2-0.1,0.4-0.1,0.7
	c-0.1,0.2-0.1,0.4-0.2,0.7c-0.1,0.4-0.2,0.9-0.3,1.4c-0.1,0.5-0.2,0.9-0.3,1.4l-0.1,0.3l-0.1,0.3c-0.1,0.2-0.1,0.5-0.2,0.7
	c-0.3,0.9-0.5,1.9-0.8,2.8c-0.3,0.9-0.6,1.9-1,2.9c-0.1,0.2-0.2,0.5-0.3,0.7c-0.1,0.2-0.2,0.5-0.3,0.7c-0.2,0.5-0.4,1-0.6,1.4
	c-0.2,0.5-0.4,1-0.6,1.4l-0.6,1.4c-0.8,1.9-1.8,3.7-2.7,5.5c-0.5,0.9-1,1.8-1.5,2.6c-0.2,0.4-0.5,0.9-0.8,1.3
	c-0.3,0.4-0.5,0.8-0.8,1.2c-0.3,0.4-0.5,0.8-0.8,1.2c-0.3,0.4-0.5,0.8-0.8,1.2c-0.3,0.4-0.5,0.8-0.8,1.1c-0.3,0.4-0.5,0.7-0.8,1.1
	c-0.5,0.7-1.1,1.4-1.6,2c-0.1,0.2-0.3,0.3-0.4,0.5c-0.1,0.2-0.3,0.3-0.4,0.5c-0.3,0.3-0.5,0.6-0.8,0.9c-0.5,0.6-1,1.2-1.5,1.7
	c-0.5,0.5-1,1-1.4,1.5c-0.4,0.5-0.8,0.9-1.2,1.3c-0.4,0.4-0.8,0.7-1.1,1c-0.7,0.6-1.2,1.1-1.5,1.5c-0.4,0.3-0.6,0.5-0.6,0.5l7.1,8
	c0,0,0.2-0.2,0.6-0.6c0.4-0.4,1-0.9,1.7-1.6c0.4-0.4,0.8-0.7,1.2-1.2c0.4-0.4,0.9-0.9,1.4-1.4c0.5-0.5,1-1.1,1.6-1.7
	c0.5-0.6,1.1-1.2,1.7-1.9c0.3-0.3,0.6-0.7,0.9-1c0.1-0.2,0.3-0.3,0.4-0.5c0.1-0.2,0.3-0.4,0.4-0.6c0.6-0.7,1.2-1.5,1.8-2.3
	c0.3-0.4,0.6-0.8,0.9-1.2c0.3-0.4,0.6-0.8,0.9-1.3c0.3-0.4,0.6-0.9,0.9-1.3c0.3-0.4,0.6-0.9,0.9-1.4c0.3-0.5,0.6-0.9,0.9-1.4
	c0.3-0.5,0.6-0.9,0.9-1.4c0.6-1,1.1-2,1.7-3c1.1-2.1,2.2-4.1,3.1-6.3c0.2-0.5,0.5-1.1,0.7-1.6c0.2-0.5,0.4-1.1,0.7-1.6
	c0.2-0.5,0.4-1.1,0.6-1.6c0.1-0.3,0.2-0.5,0.3-0.8c0.1-0.3,0.2-0.5,0.3-0.8c0.4-1.1,0.7-2.2,1.1-3.3c0.3-1.1,0.6-2.2,0.9-3.2
	c0.1-0.3,0.1-0.5,0.2-0.8l0.1-0.4c0-0.1,0.1-0.3,0.1-0.4c0.1-0.5,0.2-1.1,0.4-1.6c0.1-0.5,0.2-1,0.4-1.5c0.1-0.3,0.1-0.5,0.2-0.8
	c0.1-0.3,0.1-0.5,0.1-0.8c0.2-1,0.4-2,0.5-2.9c0.2-0.9,0.3-1.8,0.4-2.7c0.1-0.9,0.2-1.7,0.3-2.5c0.1-0.8,0.1-1.6,0.2-2.3
	c0.1-0.7,0.1-1.4,0.1-2c0-0.3,0-0.6,0-0.9c0-0.3,0-0.6,0-0.8c0-2.1,0.1-3.2,0.1-3.2S-271.4-12.3-271.4-14.4z"/>
<path id="XMLID_81_" class="st0" d="M-285.8-12.5c-0.4-14.5-4.9-28.8-13-40.8c-8.4-12.3-20.4-21.9-34.3-27.4
	c-13.9-5.5-29.5-6.8-44.1-3.5c-14.6,3.4-28.2,11.2-38.4,22.2c-11.1,11.9-17.9,27.4-19.5,43.5c-1.6,16.5,2.4,33.6,11.3,47.6
	c8.5,13.5,21.7,24.1,36.7,29.7c14.7,5.5,30.9,6.4,46,2.3c14.3-3.9,27.3-12,37-23.2c9.3-10.7,15.5-23.9,17.5-37.9
	C-286-4.2-285.7-8.4-285.8-12.5z M-296.2-10c-0.3,12.5-4.2,24.9-11.2,35.2c-7.2,10.6-17.6,18.9-29.6,23.6c-12,4.7-25.3,5.8-37.9,2.9
	c-12.7-2.9-24.2-9.6-33.1-19.1c-9.6-10.3-15.4-23.5-16.9-37.5c-1.4-14.2,2.1-28.9,9.7-41c6.9-10.9,17.3-19.5,29.1-24.6
	c12.7-5.5,27.4-6.7,40.8-3.3c12.7,3.2,24.6,10.3,33.2,20.2c8.1,9.3,13.4,21,15.2,33.2C-296.3-16.9-296.1-13.4-296.2-10
	c0,0,0-0.2,0-0.3C-296.2-10.2-296.2-10.1-296.2-10C-296.6,7.5-296.2-10.8-296.2-10z"/>
<g id="XMLID_85_">
	<path id="XMLID_109_" class="st0" d="M142.2,156.1c-0.2,0.1-0.4,0.3-0.7,0.6c-0.3,0.2-0.6,0.4-1,0.7c-0.4,0.3-0.8,0.6-1.2,0.9
		c-0.4,0.3-0.9,0.7-1.5,1c-0.5,0.3-1.1,0.7-1.7,1.1c-0.3,0.2-0.6,0.4-0.9,0.6c-0.3,0.2-0.6,0.4-1,0.6c-0.7,0.4-1.4,0.8-2.1,1.2
		c-0.1,0.1-0.2,0.1-0.3,0.2c-0.1,0-0.2,0.1-0.3,0.1c-0.2,0.1-0.4,0.2-0.6,0.3c-0.4,0.2-0.8,0.4-1.2,0.6c-0.4,0.2-0.8,0.4-1.2,0.6
		c-0.4,0.2-0.8,0.4-1.3,0.6c-0.9,0.4-1.7,0.8-2.6,1.2c-3.6,1.5-7.5,2.8-11.5,3.8c-1,0.2-2,0.5-3,0.7c-1,0.2-2,0.4-3,0.5
		c-0.3,0-0.5,0.1-0.7,0.1c-0.2,0-0.5,0.1-0.8,0.1c-0.5,0.1-1,0.1-1.5,0.2c-0.5,0.1-1,0.1-1.5,0.2c-0.2,0-0.5,0.1-0.7,0.1
		c-0.2,0-0.5,0-0.7,0.1c-1,0.1-1.9,0.1-2.8,0.2c-0.9,0-1.8,0-2.7,0.1c-0.4,0-0.9,0-1.3,0c-0.4,0-0.9,0-1.3,0c-0.8,0-1.6,0-2.4-0.1
		c-0.1,0-0.2,0-0.3,0c-0.1,0-0.2,0-0.3,0c-0.2,0-0.4,0-0.6,0c-0.4,0-0.7-0.1-1.1-0.1c-0.7-0.1-1.4-0.1-2-0.2
		c-1.2-0.2-2.3-0.3-3.2-0.4c-0.2,0-0.4-0.1-0.6-0.1c-0.2,0-0.4-0.1-0.6-0.1c-0.3-0.1-0.6-0.1-0.9-0.2c-0.5-0.1-0.7-0.1-0.7-0.1
		l-1.9,10.5c0,0,0.3,0.1,0.8,0.1c0.3,0,0.6,0.1,1,0.2c0.2,0,0.4,0.1,0.6,0.1c0.2,0,0.5,0.1,0.7,0.1c1,0.1,2.3,0.3,3.7,0.5
		c0.7,0.1,1.5,0.1,2.3,0.2c0.4,0,0.8,0.1,1.2,0.1c0.2,0,0.4,0,0.6,0c0.1,0,0.2,0,0.3,0c0.1,0,0.2,0,0.3,0c0.9,0,1.8,0,2.7,0.1
		c0.5,0,1,0,1.4,0c0.5,0,1,0,1.5,0c1,0,2-0.1,3.1-0.1c1.1-0.1,2.1-0.2,3.2-0.2c0.3,0,0.5,0,0.8-0.1c0.3,0,0.6,0,0.8-0.1
		c0.6-0.1,1.1-0.1,1.7-0.2c0.6-0.1,1.1-0.1,1.7-0.2c0.3,0,0.6-0.1,0.9-0.1c0.3,0,0.6-0.1,0.9-0.1c1.1-0.2,2.3-0.4,3.4-0.6
		c1.1-0.3,2.3-0.5,3.4-0.8c4.6-1.1,9-2.6,13.1-4.3c1-0.4,2-0.9,3-1.3c0.5-0.2,1-0.4,1.4-0.7c0.5-0.2,0.9-0.5,1.4-0.7
		c0.4-0.2,0.9-0.5,1.3-0.7c0.2-0.1,0.4-0.2,0.6-0.3c0.1-0.1,0.2-0.1,0.3-0.2c0.1-0.1,0.2-0.1,0.3-0.2c0.8-0.5,1.6-0.9,2.4-1.4
		c0.4-0.2,0.8-0.4,1.1-0.7c0.4-0.2,0.7-0.4,1-0.7c0.7-0.4,1.3-0.8,1.9-1.2c0.6-0.4,1.1-0.8,1.7-1.1c0.5-0.4,1-0.7,1.4-1
		c0.4-0.3,0.8-0.6,1.1-0.8c0.3-0.2,0.6-0.5,0.8-0.6c0.4-0.3,0.7-0.5,0.7-0.5l-6.6-8.4C142.8,155.7,142.6,155.8,142.2,156.1z"/>
	<path id="XMLID_90_" class="st1" d="M74.9,169.8c-0.1,0-0.3-0.1-0.5-0.1c-0.3-0.1-0.7-0.2-1.2-0.3c-0.4-0.1-0.9-0.3-1.4-0.4
		c-0.3-0.1-0.5-0.1-0.8-0.2c-0.3-0.1-0.6-0.2-0.9-0.3c-1.2-0.4-2.5-0.8-4-1.4c-0.7-0.3-1.5-0.6-2.2-0.9c-0.8-0.3-1.5-0.7-2.4-1.1
		c-0.4-0.2-0.8-0.4-1.2-0.6c-0.4-0.2-0.8-0.4-1.2-0.6s-0.8-0.4-1.3-0.6c-0.2-0.1-0.4-0.2-0.6-0.3c-0.2-0.1-0.4-0.2-0.6-0.4
		c-0.8-0.5-1.7-1-2.6-1.5c-0.8-0.5-1.7-1.1-2.5-1.6c-0.2-0.1-0.4-0.3-0.6-0.4c-0.2-0.1-0.4-0.3-0.6-0.4c-0.4-0.3-0.8-0.6-1.3-0.9
		c-0.4-0.3-0.8-0.6-1.3-0.9c-0.4-0.3-0.8-0.6-1.2-1l-1.2-1l-0.6-0.5l-0.6-0.5c-0.8-0.7-1.6-1.3-2.3-2c-0.7-0.7-1.5-1.4-2.2-2.1
		c-0.2-0.2-0.4-0.3-0.5-0.5c-0.2-0.2-0.3-0.4-0.5-0.5c-0.3-0.4-0.7-0.7-1-1.1c-0.3-0.4-0.7-0.7-1-1c-0.3-0.4-0.6-0.7-0.9-1.1
		c-0.3-0.4-0.6-0.7-0.9-1c-0.1-0.2-0.3-0.3-0.4-0.5l-0.2-0.3l-0.2-0.3c-1.1-1.4-2.2-2.7-3-4c-0.4-0.6-0.9-1.2-1.3-1.8
		c-0.4-0.6-0.7-1.2-1.1-1.7c-0.3-0.5-0.7-1-1-1.5c-0.3-0.5-0.5-0.9-0.7-1.3c-0.5-0.8-0.8-1.4-1-1.8c-0.1-0.2-0.2-0.4-0.3-0.5
		c-0.1-0.1-0.1-0.2-0.1-0.2l-9.4,5c0,0,0,0.1,0.1,0.2c0.1,0.1,0.2,0.3,0.3,0.6c0.3,0.5,0.7,1.2,1.2,2.1c0.3,0.4,0.5,0.9,0.9,1.5
		c0.3,0.5,0.7,1.1,1.1,1.7c0.4,0.6,0.8,1.2,1.2,1.9c0.5,0.7,1,1.3,1.5,2.1c1,1.5,2.2,2.9,3.4,4.5c0.1,0.1,0.2,0.2,0.2,0.3
		c0.1,0.1,0.2,0.2,0.2,0.3c0.2,0.2,0.3,0.4,0.5,0.6c0.3,0.4,0.7,0.8,1,1.2c0.3,0.4,0.7,0.8,1.1,1.2c0.4,0.4,0.7,0.8,1.1,1.2
		c0.4,0.4,0.8,0.8,1.1,1.2c0.2,0.2,0.4,0.4,0.6,0.6c0.2,0.2,0.4,0.4,0.6,0.6c0.8,0.8,1.6,1.6,2.5,2.4c0.9,0.8,1.7,1.5,2.6,2.3
		l0.7,0.6l0.7,0.5l1.4,1.1c0.5,0.4,0.9,0.7,1.4,1.1c0.5,0.3,1,0.7,1.4,1c0.5,0.3,1,0.7,1.4,1c0.2,0.2,0.5,0.3,0.7,0.5
		c0.2,0.2,0.5,0.3,0.7,0.5c1,0.6,1.9,1.2,2.9,1.8c1,0.6,2,1.1,2.9,1.7c0.2,0.1,0.5,0.3,0.7,0.4c0.2,0.1,0.5,0.2,0.7,0.4
		c0.5,0.2,1,0.5,1.4,0.7c0.5,0.2,0.9,0.5,1.4,0.7c0.5,0.2,0.9,0.4,1.4,0.6c0.9,0.4,1.8,0.8,2.7,1.2c0.9,0.4,1.7,0.7,2.6,1
		c1.6,0.7,3.2,1.2,4.5,1.6c0.3,0.1,0.7,0.2,1,0.3c0.3,0.1,0.6,0.2,0.9,0.3c0.6,0.2,1.1,0.3,1.6,0.5c0.5,0.1,0.9,0.3,1.3,0.4
		c0.2,0.1,0.4,0.1,0.5,0.1c0.2,0,0.3,0.1,0.4,0.1c0.5,0.1,0.8,0.2,0.8,0.2l2.5-10.4c0,0-0.3-0.1-0.7-0.2
		C75.2,169.9,75,169.9,74.9,169.8z"/>
	<path id="XMLID_89_" class="st0" d="M22.8,125.6c-0.2-0.4-0.5-1.1-0.8-1.9c-0.2-0.4-0.3-0.9-0.5-1.4c-0.1-0.3-0.2-0.5-0.3-0.8
		c-0.1-0.3-0.2-0.6-0.3-0.9c-0.2-0.6-0.4-1.2-0.6-1.9c-0.1-0.3-0.2-0.7-0.3-1c-0.1-0.2-0.1-0.4-0.2-0.5c-0.1-0.2-0.1-0.4-0.2-0.6
		c-0.4-1.5-0.9-3.1-1.3-4.8c-0.1-0.4-0.2-0.9-0.3-1.3c-0.1-0.2-0.1-0.4-0.2-0.7c0-0.2-0.1-0.5-0.1-0.7c-0.2-0.9-0.3-1.9-0.5-2.8
		c-0.6-3.8-1-8-1-12.1c0-4.1,0.3-8.3,0.9-12.1c0.2-1,0.3-1.9,0.5-2.8c0.1-0.5,0.2-0.9,0.3-1.4c0.1-0.4,0.2-0.9,0.3-1.3
		c0.2-0.9,0.4-1.7,0.6-2.5c0.2-0.8,0.4-1.6,0.7-2.3c0.9-3,1.8-5.4,2.5-7.1c0.2-0.4,0.3-0.8,0.4-1.1c0.1-0.3,0.3-0.6,0.4-0.8
		c0.2-0.4,0.3-0.7,0.3-0.7l-9.7-4.3c0,0-0.1,0.3-0.3,0.8c-0.1,0.3-0.3,0.6-0.4,0.9c-0.1,0.4-0.3,0.8-0.5,1.3c-0.8,1.9-1.8,4.7-2.8,8
		c-0.2,0.8-0.5,1.7-0.7,2.6c-0.2,0.9-0.4,1.9-0.7,2.9c-0.1,0.5-0.2,1-0.3,1.5c-0.1,0.5-0.2,1-0.3,1.5c-0.2,1-0.4,2.1-0.6,3.2
		c-0.6,4.4-1,9-1,13.7c0,4.7,0.4,9.4,1.1,13.7c0.2,1.1,0.4,2.1,0.6,3.2c0,0.3,0.1,0.5,0.1,0.8c0.1,0.3,0.1,0.5,0.2,0.8
		c0.1,0.5,0.2,1,0.3,1.5c0.4,2,1,3.8,1.5,5.5c0.1,0.2,0.1,0.4,0.2,0.6c0.1,0.2,0.1,0.4,0.2,0.6c0.1,0.4,0.3,0.8,0.4,1.2
		c0.3,0.8,0.5,1.5,0.7,2.2c0.1,0.3,0.2,0.7,0.4,1c0.1,0.3,0.2,0.6,0.4,0.9c0.2,0.6,0.4,1.1,0.6,1.6c0.4,1,0.7,1.7,0.9,2.2
		c0.2,0.5,0.3,0.8,0.3,0.8l9.7-4.4C23.1,126.2,23,126,22.8,125.6z"/>
	<path id="XMLID_88_" class="st1" d="M25.4,56.9c0.1-0.1,0.1-0.3,0.3-0.5c0.2-0.4,0.6-1,1-1.8c0.2-0.4,0.5-0.8,0.7-1.3
		c0.3-0.5,0.6-1,1-1.5c0.3-0.5,0.7-1.1,1.1-1.7c0.4-0.6,0.8-1.2,1.3-1.8c0.9-1.3,1.9-2.6,3-4l0.2-0.3l0.2-0.3
		c0.1-0.2,0.3-0.3,0.4-0.5c0.3-0.3,0.6-0.7,0.9-1c0.3-0.4,0.6-0.7,0.9-1.1c0.3-0.3,0.7-0.7,1-1c0.3-0.4,0.7-0.7,1-1.1
		c0.2-0.2,0.3-0.4,0.5-0.5c0.2-0.2,0.4-0.3,0.5-0.5c0.7-0.7,1.5-1.4,2.2-2.1c0.8-0.7,1.5-1.3,2.3-2l0.6-0.5l0.6-0.5l1.2-1
		c0.4-0.3,0.8-0.6,1.2-1c0.4-0.3,0.8-0.6,1.3-0.9s0.8-0.6,1.3-0.9c0.2-0.1,0.4-0.3,0.6-0.4c0.2-0.1,0.4-0.3,0.6-0.4
		c0.9-0.5,1.7-1.1,2.5-1.6c0.9-0.5,1.7-1,2.6-1.5c0.2-0.1,0.4-0.2,0.6-0.4c0.2-0.1,0.4-0.2,0.6-0.3c0.4-0.2,0.8-0.4,1.3-0.6
		c0.4-0.2,0.8-0.4,1.2-0.6c0.4-0.2,0.8-0.4,1.2-0.6c0.8-0.4,1.6-0.7,2.4-1.1c0.8-0.3,1.5-0.6,2.2-0.9c1.4-0.6,2.8-1,4-1.4
		c0.3-0.1,0.6-0.2,0.9-0.3c0.3-0.1,0.6-0.2,0.8-0.2c0.5-0.1,1-0.3,1.4-0.4c0.4-0.1,0.8-0.2,1.2-0.3c0.2,0,0.3-0.1,0.5-0.1
		c0.1,0,0.3-0.1,0.4-0.1c0.5-0.1,0.7-0.2,0.7-0.2L73.5,7.4c0,0-0.3,0.1-0.8,0.2c-0.1,0-0.3,0.1-0.4,0.1c-0.2,0-0.3,0.1-0.5,0.1
		c-0.4,0.1-0.8,0.2-1.3,0.4c-0.5,0.1-1,0.3-1.6,0.5c-0.3,0.1-0.6,0.2-0.9,0.3c-0.3,0.1-0.6,0.2-1,0.3c-1.4,0.5-2.9,0.9-4.5,1.6
		c-0.8,0.3-1.7,0.7-2.6,1c-0.9,0.4-1.8,0.8-2.7,1.2c-0.5,0.2-0.9,0.4-1.4,0.6c-0.5,0.2-0.9,0.5-1.4,0.7c-0.5,0.2-0.9,0.5-1.4,0.7
		c-0.2,0.1-0.5,0.2-0.7,0.4c-0.2,0.1-0.5,0.3-0.7,0.4c-1,0.5-1.9,1.1-2.9,1.7c-1,0.6-1.9,1.2-2.9,1.8c-0.2,0.2-0.5,0.3-0.7,0.5
		c-0.2,0.2-0.5,0.3-0.7,0.5c-0.5,0.3-0.9,0.7-1.4,1c-0.5,0.3-1,0.7-1.4,1c-0.5,0.4-0.9,0.7-1.4,1.1l-1.4,1.1l-0.7,0.5l-0.7,0.6
		c-0.9,0.8-1.8,1.5-2.6,2.3c-0.8,0.8-1.7,1.6-2.5,2.4c-0.2,0.2-0.4,0.4-0.6,0.6c-0.2,0.2-0.4,0.4-0.6,0.6c-0.4,0.4-0.8,0.8-1.1,1.2
		c-0.4,0.4-0.8,0.8-1.1,1.2c-0.4,0.4-0.7,0.8-1.1,1.2c-0.3,0.4-0.7,0.8-1,1.2c-0.2,0.2-0.3,0.4-0.5,0.6c-0.1,0.1-0.2,0.2-0.2,0.3
		c-0.1,0.1-0.2,0.2-0.2,0.3c-1.2,1.6-2.4,3.1-3.4,4.5c-0.5,0.7-1,1.4-1.5,2.1c-0.4,0.7-0.8,1.3-1.2,1.9c-0.4,0.6-0.7,1.2-1.1,1.7
		c-0.3,0.5-0.6,1-0.9,1.5c-0.5,0.9-0.9,1.6-1.2,2.1c-0.1,0.2-0.2,0.4-0.3,0.6C15.9,52,15.9,52,15.9,52l9.4,5
		C25.3,57.1,25.3,57,25.4,56.9z"/>
	<path id="XMLID_87_" class="st0" d="M81.7,16.6c0.2,0,0.5-0.1,0.9-0.2c0.3,0,0.7-0.1,1.2-0.2c0.4-0.1,0.9-0.1,1.5-0.2
		c0.3,0,0.6-0.1,0.8-0.1c0.1,0,0.3,0,0.4-0.1c0.2,0,0.3,0,0.5,0c0.6,0,1.3-0.1,2-0.2c0.7,0,1.4-0.1,2.2-0.1c1.5,0,3.2-0.1,5,0
		c0.4,0,0.9,0,1.3,0c0.2,0,0.5,0,0.7,0c0.1,0,0.2,0,0.3,0c0.1,0,0.2,0,0.3,0c0.9,0.1,1.9,0.1,2.8,0.2c0.2,0,0.5,0,0.7,0.1
		c0.2,0,0.5,0.1,0.7,0.1c0.5,0.1,1,0.1,1.5,0.2c0.5,0.1,1,0.1,1.5,0.2c0.3,0,0.5,0.1,0.7,0.1c0.2,0,0.5,0.1,0.7,0.1
		c0.5,0.1,1,0.2,1.5,0.3c0.3,0,0.5,0.1,0.8,0.1l0.4,0.1l0.4,0.1c1,0.2,2,0.5,3,0.7c4,1,7.9,2.4,11.5,3.9c0.9,0.4,1.7,0.8,2.6,1.2
		c0.2,0.1,0.4,0.2,0.6,0.3c0.2,0.1,0.4,0.2,0.6,0.3c0.4,0.2,0.8,0.4,1.2,0.6s0.8,0.4,1.2,0.6c0.2,0.1,0.4,0.2,0.6,0.3
		c0.2,0.1,0.4,0.2,0.5,0.3c0.7,0.4,1.4,0.8,2.1,1.2c0.2,0.1,0.3,0.2,0.5,0.3c0.2,0.1,0.3,0.2,0.5,0.3c0.3,0.2,0.6,0.4,0.9,0.6
		c0.6,0.4,1.2,0.7,1.7,1.1c1,0.7,1.9,1.4,2.7,1.9c0.2,0.1,0.4,0.3,0.5,0.4c0.2,0.1,0.3,0.2,0.4,0.3c0.3,0.2,0.5,0.4,0.7,0.6
		c0.4,0.3,0.6,0.5,0.6,0.5l6.6-8.4c0,0-0.2-0.2-0.7-0.5c-0.2-0.2-0.5-0.4-0.8-0.6c-0.2-0.1-0.3-0.3-0.5-0.4
		c-0.2-0.1-0.4-0.3-0.6-0.4c-0.8-0.6-1.8-1.3-3-2.1c-0.6-0.4-1.2-0.8-1.9-1.2c-0.3-0.2-0.7-0.4-1-0.7c-0.2-0.1-0.4-0.2-0.5-0.3
		c-0.2-0.1-0.4-0.2-0.6-0.3c-0.8-0.4-1.6-0.9-2.4-1.4c-0.2-0.1-0.4-0.2-0.6-0.4c-0.2-0.1-0.4-0.2-0.6-0.3c-0.4-0.2-0.9-0.5-1.3-0.7
		c-0.4-0.2-0.9-0.5-1.4-0.7c-0.2-0.1-0.5-0.2-0.7-0.4c-0.2-0.1-0.5-0.2-0.7-0.3c-1-0.4-2-0.9-3-1.3c-4.1-1.7-8.5-3.2-13.1-4.4
		c-1.1-0.3-2.3-0.5-3.4-0.8l-0.4-0.1L112,6.6c-0.3-0.1-0.6-0.1-0.9-0.2c-0.6-0.1-1.1-0.2-1.7-0.3c-0.3-0.1-0.6-0.1-0.9-0.2
		c-0.3,0-0.6-0.1-0.8-0.1c-0.6-0.1-1.1-0.1-1.7-0.2c-0.6-0.1-1.1-0.1-1.7-0.2c-0.3,0-0.6-0.1-0.8-0.1c-0.3,0-0.6,0-0.8-0.1
		c-1.1-0.1-2.2-0.2-3.2-0.2c-0.1,0-0.3,0-0.4,0c-0.1,0-0.3,0-0.4,0c-0.3,0-0.5,0-0.8,0c-0.5,0-1,0-1.5,0c-2-0.1-3.9,0-5.7,0
		c-0.9,0-1.7,0.1-2.5,0.1c-0.8,0.1-1.6,0.1-2.3,0.2c-0.2,0-0.4,0-0.5,0c-0.2,0-0.3,0-0.5,0.1c-0.3,0-0.7,0.1-1,0.1
		c-0.6,0.1-1.2,0.1-1.7,0.2c-0.5,0.1-1,0.1-1.4,0.2c-0.4,0.1-0.7,0.1-1,0.2c-0.5,0.1-0.8,0.1-0.8,0.1l1.8,10.5
		C80.9,16.7,81.2,16.7,81.7,16.6z"/>
	<path id="XMLID_86_" class="st1" d="M183.5,90.7c0-0.3,0-0.5,0-0.8c0-0.3,0-0.6,0-0.9c0-0.6-0.1-1.3-0.1-2
		c-0.1-0.7-0.1-1.5-0.2-2.3c-0.1-0.8-0.2-1.6-0.3-2.5c-0.1-0.9-0.2-1.8-0.4-2.7c-0.2-0.9-0.3-1.9-0.5-2.9c0-0.2-0.1-0.5-0.1-0.7
		c-0.1-0.2-0.1-0.5-0.2-0.8c-0.1-0.5-0.2-1-0.4-1.5c-0.1-0.5-0.2-1-0.4-1.6c0-0.1-0.1-0.3-0.1-0.4l-0.1-0.4
		c-0.1-0.3-0.1-0.5-0.2-0.8c-0.3-1.1-0.6-2.1-0.9-3.2c-0.4-1.1-0.7-2.2-1.1-3.3c-0.1-0.3-0.2-0.5-0.3-0.8c-0.1-0.3-0.2-0.5-0.3-0.8
		c-0.2-0.5-0.4-1.1-0.6-1.6c-0.2-0.5-0.4-1.1-0.7-1.6c-0.2-0.5-0.5-1.1-0.7-1.6c-0.9-2.2-2-4.2-3.1-6.3c-0.6-1-1.1-2-1.7-3
		c-0.3-0.5-0.6-1-0.9-1.4c-0.3-0.5-0.6-0.9-0.9-1.4c-0.3-0.5-0.6-0.9-0.9-1.4c-0.3-0.4-0.6-0.9-0.9-1.3c-0.3-0.4-0.6-0.9-0.9-1.3
		c-0.3-0.4-0.6-0.8-0.9-1.2c-0.6-0.8-1.2-1.6-1.8-2.3c-0.1-0.2-0.3-0.4-0.4-0.6c-0.1-0.2-0.3-0.4-0.4-0.5c-0.3-0.3-0.6-0.7-0.9-1
		c-0.6-0.7-1.1-1.3-1.7-1.9c-0.6-0.6-1.1-1.1-1.6-1.6c-0.5-0.5-0.9-1-1.4-1.4c-0.4-0.4-0.9-0.8-1.2-1.2c-0.7-0.7-1.3-1.3-1.7-1.6
		c-0.4-0.4-0.6-0.6-0.6-0.6l-7.1,8c0,0,0.2,0.2,0.6,0.5c0.4,0.3,0.9,0.8,1.5,1.4c0.3,0.3,0.7,0.7,1.1,1c0.4,0.4,0.8,0.8,1.2,1.3
		c0.4,0.5,0.9,0.9,1.4,1.5c0.5,0.5,1,1.1,1.5,1.7c0.3,0.3,0.5,0.6,0.8,0.9c0.1,0.2,0.3,0.3,0.4,0.5c0.1,0.2,0.3,0.3,0.4,0.5
		c0.5,0.7,1,1.3,1.6,2c0.3,0.3,0.5,0.7,0.8,1.1c0.3,0.4,0.5,0.7,0.8,1.1c0.3,0.4,0.5,0.8,0.8,1.2c0.3,0.4,0.5,0.8,0.8,1.2
		c0.3,0.4,0.5,0.8,0.8,1.2c0.3,0.4,0.5,0.8,0.8,1.3c0.5,0.9,1,1.7,1.5,2.6c0.9,1.8,1.9,3.6,2.7,5.5l0.6,1.4c0.2,0.5,0.4,1,0.6,1.4
		c0.2,0.5,0.4,1,0.6,1.4c0.1,0.2,0.2,0.5,0.3,0.7c0.1,0.2,0.2,0.5,0.3,0.7c0.3,1,0.6,1.9,1,2.9c0.3,1,0.5,1.9,0.8,2.8
		c0.1,0.2,0.1,0.5,0.2,0.7l0.1,0.3l0.1,0.3c0.1,0.5,0.2,0.9,0.3,1.4s0.2,0.9,0.3,1.3c0.1,0.2,0.1,0.4,0.2,0.7c0,0.2,0.1,0.4,0.1,0.7
		c0.2,0.9,0.3,1.7,0.5,2.5c0.2,0.8,0.2,1.6,0.3,2.4c0.1,0.8,0.2,1.5,0.3,2.2c0.1,0.7,0.1,1.4,0.2,2c0,0.6,0.1,1.2,0.1,1.8
		c0,0.3,0,0.5,0,0.8c0,0.2,0,0.5,0,0.7c0,1.8,0.1,2.8,0.1,2.8s0,1-0.1,2.8c0,0.2,0,0.5,0,0.7c0,0.2,0,0.5,0,0.8
		c0,0.5-0.1,1.1-0.1,1.8c0,0.6-0.1,1.3-0.2,2c-0.1,0.7-0.2,1.4-0.3,2.2c-0.1,0.8-0.2,1.6-0.3,2.4c-0.1,0.8-0.3,1.7-0.5,2.5
		c0,0.2-0.1,0.4-0.1,0.7c-0.1,0.2-0.1,0.4-0.2,0.7c-0.1,0.4-0.2,0.9-0.3,1.3c-0.1,0.5-0.2,0.9-0.3,1.4l-0.1,0.3l-0.1,0.3
		c-0.1,0.2-0.1,0.5-0.2,0.7c-0.3,0.9-0.5,1.9-0.8,2.8c-0.3,0.9-0.6,1.9-1,2.9c-0.1,0.2-0.2,0.5-0.3,0.7c-0.1,0.2-0.2,0.5-0.3,0.7
		c-0.2,0.5-0.4,1-0.6,1.4c-0.2,0.5-0.4,1-0.6,1.4l-0.6,1.4c-0.8,1.9-1.8,3.7-2.7,5.5c-0.5,0.9-1,1.8-1.5,2.6
		c-0.2,0.4-0.5,0.8-0.8,1.3c-0.3,0.4-0.5,0.8-0.8,1.2c-0.3,0.4-0.5,0.8-0.8,1.2c-0.3,0.4-0.5,0.8-0.8,1.2c-0.3,0.4-0.5,0.8-0.8,1.1
		c-0.3,0.4-0.5,0.7-0.8,1.1c-0.5,0.7-1.1,1.4-1.6,2c-0.1,0.2-0.3,0.3-0.4,0.5c-0.1,0.2-0.3,0.3-0.4,0.5c-0.3,0.3-0.5,0.6-0.8,0.9
		c-0.5,0.6-1,1.2-1.5,1.7c-0.5,0.5-0.9,1-1.4,1.5c-0.4,0.5-0.8,0.9-1.2,1.3c-0.4,0.4-0.8,0.7-1.1,1c-0.7,0.6-1.2,1.1-1.5,1.4
		c-0.4,0.3-0.6,0.5-0.6,0.5l7.1,8c0,0,0.2-0.2,0.6-0.6c0.4-0.4,1-0.9,1.7-1.6c0.4-0.4,0.8-0.7,1.2-1.2c0.4-0.4,0.9-0.9,1.4-1.4
		c0.5-0.5,1-1.1,1.6-1.6c0.5-0.6,1.1-1.2,1.7-1.9c0.3-0.3,0.6-0.7,0.9-1c0.1-0.2,0.3-0.3,0.4-0.5c0.1-0.2,0.3-0.4,0.4-0.6
		c0.6-0.7,1.2-1.5,1.8-2.3c0.3-0.4,0.6-0.8,0.9-1.2c0.3-0.4,0.6-0.8,0.9-1.3c0.3-0.4,0.6-0.9,0.9-1.3c0.3-0.4,0.6-0.9,0.9-1.4
		c0.3-0.5,0.6-0.9,0.9-1.4c0.3-0.5,0.6-0.9,0.9-1.4c0.6-1,1.1-2,1.7-3c1.1-2,2.2-4.1,3.1-6.3c0.2-0.5,0.5-1.1,0.7-1.6
		c0.2-0.5,0.4-1.1,0.7-1.6c0.2-0.5,0.4-1.1,0.6-1.6c0.1-0.3,0.2-0.5,0.3-0.8c0.1-0.3,0.2-0.5,0.3-0.8c0.4-1.1,0.7-2.2,1.1-3.3
		c0.3-1.1,0.6-2.2,0.9-3.2c0.1-0.3,0.1-0.5,0.2-0.8l0.1-0.4c0-0.1,0.1-0.3,0.1-0.4c0.1-0.5,0.2-1,0.4-1.6c0.1-0.5,0.2-1,0.4-1.5
		c0.1-0.3,0.1-0.5,0.2-0.8c0.1-0.2,0.1-0.5,0.1-0.7c0.2-1,0.4-2,0.5-2.9c0.2-0.9,0.3-1.8,0.4-2.7c0.1-0.9,0.2-1.7,0.3-2.5
		c0.1-0.8,0.1-1.6,0.2-2.3c0.1-0.7,0.1-1.4,0.1-2c0-0.3,0-0.6,0-0.9c0-0.3,0-0.6,0-0.8c0-2,0.1-3.2,0.1-3.2S183.6,92.8,183.5,90.7z"
		/>
	<path id="XMLID_112_" class="st0" d="M140.5,36c-15.2-11.9-34.8-17.8-54.1-15.6c-17.5,2-33.6,10.1-45.7,22.8
		c-7,7.3-12.6,16.4-15.9,26.1c-2.7,8-4.3,16.5-4.2,25c0.2,8.9,1.6,17.8,4.9,26.2c3.7,9.4,9.1,17.7,16.1,25
		c5.8,6.1,12.9,11.1,20.4,14.8c8.7,4.3,18.1,6.6,27.8,7.4c18.7,1.4,38.1-5,52.3-17.2c8.1-7,14.9-15.5,19.4-25.2
		c3.9-8.5,6.1-17.5,6.8-26.8c1.4-18.9-5.3-38.1-17.5-52.5C147.7,42.4,144.2,39,140.5,36C139.9,35.6,140.7,36.2,140.5,36z M147.8,59
		c8.5,13,12,28.9,9.7,44.3c-2.6,17.5-12.6,32.8-26.9,43c-13.2,9.4-30.6,13.1-46.5,10.4c-14.1-2.4-26.9-9.4-36.6-19.9
		c-6.1-6.6-10.6-14.5-13.5-23c-2.4-7.2-3.3-14.8-3.1-22.3c0.2-7.7,2-15.4,5-22.5c3.5-8.3,8.8-15.6,15.3-21.8
		c11.6-11.1,28.1-17.5,44.1-17c7.9,0.2,15.6,1.6,23,4.6c7.8,3.2,14.9,7.8,20.9,13.7C142.4,51.7,145.3,55.3,147.8,59
		C149.9,62.2,145.7,55.8,147.8,59z"/>
</g>
</svg>
