<?xml version="1.0" encoding="utf-8"?>
<!-- Generator: Adobe Illustrator 19.0.0, SVG Export Plug-In . SVG Version: 6.00 Build 0)  -->
<svg version="1.1" id="Layer_1" xmlns="http://www.w3.org/2000/svg" xmlns:xlink="http://www.w3.org/1999/xlink" x="0px" y="0px"
	 viewBox="0 0 1155.4 178.1" style="enable-background:new 0 0 1155.4 178.1;" xml:space="preserve">
<style type="text/css">
	.st0{fill:#1A81DD;}
	.st1{fill:#312AE2;}
</style>
<g id="XMLID_40_">
	<g>
		<path id="XMLID_125_" class="st0" d="M120.1,106.6L120.1,106.6L120.1,106.6c0-0.1,0-0.1,0-0.2c0,0-0.1,0-0.2-0.1
			c-1.8-1.8-12.7-7.7-27.4-6.3c-3.6,0.3-7.6,1.2-11.6,2.6c-0.6,0.2-1.2,0.4-1.7,0.6c-19.4,7.6-20.2,20.9-20.3,21.2l0,0
			c1,2.6,2.2,5.6,3.6,8.5l0,0l0,0c3.6,7.4,8.2,13.5,11.6,7.1c6-11.1,6.4-13.3,8.2-17.9c1.9-4.5,2.2-6.9,7.5-0.3
			c1.9,2.4,28.9,29.3,28.8,15.6C118.5,124.7,119.1,114.6,120.1,106.6z"/>
		<g id="XMLID_123_">
			<path id="XMLID_124_" class="st1" d="M118.9,49.6c-4.7-0.3-8.9,0.1-8.9,0.1c-5.2,0.5-10.4,1.5-10.4,1.5c2.7,5.2,0.5,8.4,0.5,8.4
				c-1-4.9-1.9-5.7-3.2-7.7c0,0-15.8-23-36.4-13.5c-15.5,7.1-15.1,31-13.8,44.4c0.4,4.5,1,7.8,1.1,8.9c0.2,2.1,1.2,6.2,2.4,10.4
				c1.6,5.9,2.8,8.9,3.9,11.8c0.7,1.7,1.2,2.8,2.4,5.7c0.1-0.6,1.1-13,21.5-20.5c0.6-0.2,1.2-0.4,1.8-0.6c4.3-1.4,8.4-2.3,12.3-2.6
				c15.6-1.4,27.2,4.5,29,6.3c0.2,0.1,0.3,0.1,0.3,0.1C154.7,49.1,119.1,49.7,118.9,49.6z"/>
		</g>
		<g id="XMLID_85_">
			<path id="XMLID_109_" class="st0" d="M136.4,151.1c-0.2,0.1-0.4,0.3-0.7,0.6c-0.3,0.2-0.6,0.4-1,0.7c-0.4,0.3-0.8,0.6-1.2,0.9
				s-0.9,0.7-1.5,1c-0.5,0.3-1.1,0.7-1.7,1.1c-0.3,0.2-0.6,0.4-0.9,0.6c-0.3,0.2-0.6,0.4-1,0.6c-0.7,0.4-1.4,0.8-2.1,1.2
				c-0.1,0.1-0.2,0.1-0.3,0.2c-0.1,0-0.2,0.1-0.3,0.1c-0.2,0.1-0.4,0.2-0.6,0.3c-0.4,0.2-0.8,0.4-1.2,0.6s-0.8,0.4-1.2,0.6
				s-0.8,0.4-1.3,0.6c-0.9,0.4-1.7,0.8-2.6,1.2c-3.6,1.5-7.5,2.8-11.5,3.8c-1,0.2-2,0.5-3,0.7s-2,0.4-3,0.5c-0.3,0-0.5,0.1-0.7,0.1
				s-0.5,0.1-0.8,0.1c-0.5,0.1-1,0.1-1.5,0.2s-1,0.1-1.5,0.2c-0.2,0-0.5,0.1-0.7,0.1s-0.5,0-0.7,0.1c-1,0.1-1.9,0.1-2.8,0.2
				c-0.9,0-1.8,0-2.7,0.1c-0.4,0-0.9,0-1.3,0c-0.4,0-0.9,0-1.3,0c-0.8,0-1.6,0-2.4-0.1c-0.1,0-0.2,0-0.3,0s-0.2,0-0.3,0
				c-0.2,0-0.4,0-0.6,0c-0.4,0-0.7-0.1-1.1-0.1c-0.7-0.1-1.4-0.1-2-0.2c-1.2-0.2-2.3-0.3-3.2-0.4c-0.2,0-0.4-0.1-0.6-0.1
				s-0.4-0.1-0.6-0.1c-0.3-0.1-0.6-0.1-0.9-0.2c-0.5-0.1-0.7-0.1-0.7-0.1l-1.9,10.5c0,0,0.3,0.1,0.8,0.1c0.3,0,0.6,0.1,1,0.2
				c0.2,0,0.4,0.1,0.6,0.1s0.5,0.1,0.7,0.1c1,0.1,2.3,0.3,3.7,0.5c0.7,0.1,1.5,0.1,2.3,0.2c0.4,0,0.8,0.1,1.2,0.1c0.2,0,0.4,0,0.6,0
				c0.1,0,0.2,0,0.3,0s0.2,0,0.3,0c0.9,0,1.8,0,2.7,0.1c0.5,0,1,0,1.4,0c0.5,0,1,0,1.5,0c1,0,2-0.1,3.1-0.1c1.1-0.1,2.1-0.2,3.2-0.2
				c0.3,0,0.5,0,0.8-0.1c0.3,0,0.6,0,0.8-0.1c0.6-0.1,1.1-0.1,1.7-0.2s1.1-0.1,1.7-0.2c0.3,0,0.6-0.1,0.9-0.1s0.6-0.1,0.9-0.1
				c1.1-0.2,2.3-0.4,3.4-0.6c1.1-0.3,2.3-0.5,3.4-0.8c4.6-1.1,9-2.6,13.1-4.3c1-0.4,2-0.9,3-1.3c0.5-0.2,1-0.4,1.4-0.7
				c0.5-0.2,0.9-0.5,1.4-0.7c0.4-0.2,0.9-0.5,1.3-0.7c0.2-0.1,0.4-0.2,0.6-0.3c0.1-0.1,0.2-0.1,0.3-0.2c0.1-0.1,0.2-0.1,0.3-0.2
				c0.8-0.5,1.6-0.9,2.4-1.4c0.4-0.2,0.8-0.4,1.1-0.7c0.4-0.2,0.7-0.4,1-0.7c0.7-0.4,1.3-0.8,1.9-1.2c0.6-0.4,1.1-0.8,1.7-1.1
				c0.5-0.4,1-0.7,1.4-1s0.8-0.6,1.1-0.8c0.3-0.2,0.6-0.5,0.8-0.6c0.4-0.3,0.7-0.5,0.7-0.5l-6.6-8.4
				C137,150.7,136.8,150.8,136.4,151.1z"/>
			<path id="XMLID_90_" class="st1" d="M69.1,164.8c-0.1,0-0.3-0.1-0.5-0.1c-0.3-0.1-0.7-0.2-1.2-0.3c-0.4-0.1-0.9-0.3-1.4-0.4
				c-0.3-0.1-0.5-0.1-0.8-0.2s-0.6-0.2-0.9-0.3c-1.2-0.4-2.5-0.8-4-1.4c-0.7-0.3-1.5-0.6-2.2-0.9c-0.8-0.3-1.5-0.7-2.4-1.1
				c-0.4-0.2-0.8-0.4-1.2-0.6s-0.8-0.4-1.2-0.6s-0.8-0.4-1.3-0.6c-0.2-0.1-0.4-0.2-0.6-0.3s-0.4-0.2-0.6-0.4c-0.8-0.5-1.7-1-2.6-1.5
				c-0.8-0.5-1.7-1.1-2.5-1.6c-0.2-0.1-0.4-0.3-0.6-0.4c-0.2-0.1-0.4-0.3-0.6-0.4c-0.4-0.3-0.8-0.6-1.3-0.9
				c-0.4-0.3-0.8-0.6-1.3-0.9c-0.4-0.3-0.8-0.6-1.2-1l-1.2-1l-0.6-0.5l-0.6-0.5c-0.8-0.7-1.6-1.3-2.3-2s-1.5-1.4-2.2-2.1
				c-0.2-0.2-0.4-0.3-0.5-0.5c-0.2-0.2-0.3-0.4-0.5-0.5c-0.3-0.4-0.7-0.7-1-1.1s-0.7-0.7-1-1c-0.3-0.4-0.6-0.7-0.9-1.1
				s-0.6-0.7-0.9-1c-0.1-0.2-0.3-0.3-0.4-0.5l-0.2-0.3l-0.2-0.3c-1.1-1.4-2.2-2.7-3-4c-0.4-0.6-0.9-1.2-1.3-1.8
				c-0.4-0.6-0.7-1.2-1.1-1.7c-0.3-0.5-0.7-1-1-1.5s-0.5-0.9-0.7-1.3c-0.5-0.8-0.8-1.4-1-1.8c-0.1-0.2-0.2-0.4-0.3-0.5
				s-0.1-0.2-0.1-0.2l-9.4,5c0,0,0,0.1,0.1,0.2s0.2,0.3,0.3,0.6c0.3,0.5,0.7,1.2,1.2,2.1c0.3,0.4,0.5,0.9,0.9,1.5
				c0.3,0.5,0.7,1.1,1.1,1.7c0.4,0.6,0.8,1.2,1.2,1.9c0.5,0.7,1,1.3,1.5,2.1c1,1.5,2.2,2.9,3.4,4.5c0.1,0.1,0.2,0.2,0.2,0.3
				c0.1,0.1,0.2,0.2,0.2,0.3c0.2,0.2,0.3,0.4,0.5,0.6c0.3,0.4,0.7,0.8,1,1.2c0.3,0.4,0.7,0.8,1.1,1.2c0.4,0.4,0.7,0.8,1.1,1.2
				s0.8,0.8,1.1,1.2c0.2,0.2,0.4,0.4,0.6,0.6s0.4,0.4,0.6,0.6c0.8,0.8,1.6,1.6,2.5,2.4s1.7,1.5,2.6,2.3l0.7,0.6l0.7,0.5l1.4,1.1
				c0.5,0.4,0.9,0.7,1.4,1.1c0.5,0.3,1,0.7,1.4,1c0.5,0.3,1,0.7,1.4,1c0.2,0.2,0.5,0.3,0.7,0.5s0.5,0.3,0.7,0.5
				c1,0.6,1.9,1.2,2.9,1.8s2,1.1,2.9,1.7c0.2,0.1,0.5,0.3,0.7,0.4s0.5,0.2,0.7,0.4c0.5,0.2,1,0.5,1.4,0.7c0.5,0.2,0.9,0.5,1.4,0.7
				s0.9,0.4,1.4,0.6c0.9,0.4,1.8,0.8,2.7,1.2c0.9,0.4,1.7,0.7,2.6,1c1.6,0.7,3.2,1.2,4.5,1.6c0.3,0.1,0.7,0.2,1,0.3s0.6,0.2,0.9,0.3
				c0.6,0.2,1.1,0.3,1.6,0.5c0.5,0.1,0.9,0.3,1.3,0.4c0.2,0.1,0.4,0.1,0.5,0.1c0.2,0,0.3,0.1,0.4,0.1c0.5,0.1,0.8,0.2,0.8,0.2
				l2.5-10.4c0,0-0.3-0.1-0.7-0.2C69.4,164.9,69.2,164.9,69.1,164.8z"/>
			<path id="XMLID_89_" class="st0" d="M17,120.6c-0.2-0.4-0.5-1.1-0.8-1.9c-0.2-0.4-0.3-0.9-0.5-1.4c-0.1-0.3-0.2-0.5-0.3-0.8
				s-0.2-0.6-0.3-0.9c-0.2-0.6-0.4-1.2-0.6-1.9c-0.1-0.3-0.2-0.7-0.3-1c-0.1-0.2-0.1-0.4-0.2-0.5c-0.1-0.2-0.1-0.4-0.2-0.6
				c-0.4-1.5-0.9-3.1-1.3-4.8c-0.1-0.4-0.2-0.9-0.3-1.3c-0.1-0.2-0.1-0.4-0.2-0.7c0-0.2-0.1-0.5-0.1-0.7c-0.2-0.9-0.3-1.9-0.5-2.8
				c-0.6-3.8-1-8-1-12.1s0.3-8.3,0.9-12.1c0.2-1,0.3-1.9,0.5-2.8c0.1-0.5,0.2-0.9,0.3-1.4c0.1-0.4,0.2-0.9,0.3-1.3
				c0.2-0.9,0.4-1.7,0.6-2.5c0.2-0.8,0.4-1.6,0.7-2.3c0.9-3,1.8-5.4,2.5-7.1c0.2-0.4,0.3-0.8,0.4-1.1c0.1-0.3,0.3-0.6,0.4-0.8
				c0.2-0.4,0.3-0.7,0.3-0.7l-9.7-4.3c0,0-0.1,0.3-0.3,0.8c-0.1,0.3-0.3,0.6-0.4,0.9c-0.1,0.4-0.3,0.8-0.5,1.3
				c-0.8,1.9-1.8,4.7-2.8,8c-0.2,0.8-0.5,1.7-0.7,2.6s-0.4,1.9-0.7,2.9c-0.1,0.5-0.2,1-0.3,1.5s-0.2,1-0.3,1.5
				c-0.2,1-0.4,2.1-0.6,3.2c-0.6,4.4-1,9-1,13.7s0.4,9.4,1.1,13.7c0.2,1.1,0.4,2.1,0.6,3.2c0,0.3,0.1,0.5,0.1,0.8
				c0.1,0.3,0.1,0.5,0.2,0.8c0.1,0.5,0.2,1,0.3,1.5c0.4,2,1,3.8,1.5,5.5c0.1,0.2,0.1,0.4,0.2,0.6c0.1,0.2,0.1,0.4,0.2,0.6
				c0.1,0.4,0.3,0.8,0.4,1.2c0.3,0.8,0.5,1.5,0.7,2.2c0.1,0.3,0.2,0.7,0.4,1c0.1,0.3,0.2,0.6,0.4,0.9c0.2,0.6,0.4,1.1,0.6,1.6
				c0.4,1,0.7,1.7,0.9,2.2s0.3,0.8,0.3,0.8l9.7-4.4C17.3,121.2,17.2,121,17,120.6z"/>
			<path id="XMLID_88_" class="st1" d="M19.6,51.9c0.1-0.1,0.1-0.3,0.3-0.5c0.2-0.4,0.6-1,1-1.8c0.2-0.4,0.5-0.8,0.7-1.3
				c0.3-0.5,0.6-1,1-1.5c0.3-0.5,0.7-1.1,1.1-1.7c0.4-0.6,0.8-1.2,1.3-1.8c0.9-1.3,1.9-2.6,3-4l0.2-0.3l0.2-0.3
				c0.1-0.2,0.3-0.3,0.4-0.5c0.3-0.3,0.6-0.7,0.9-1c0.3-0.4,0.6-0.7,0.9-1.1c0.3-0.3,0.7-0.7,1-1c0.3-0.4,0.7-0.7,1-1.1
				c0.2-0.2,0.3-0.4,0.5-0.5c0.2-0.2,0.4-0.3,0.5-0.5c0.7-0.7,1.5-1.4,2.2-2.1c0.8-0.7,1.5-1.3,2.3-2l0.6-0.5l0.6-0.5l1.2-1
				c0.4-0.3,0.8-0.6,1.2-1c0.4-0.3,0.8-0.6,1.3-0.9s0.8-0.6,1.3-0.9c0.2-0.1,0.4-0.3,0.6-0.4s0.4-0.3,0.6-0.4
				c0.9-0.5,1.7-1.1,2.5-1.6c0.9-0.5,1.7-1,2.6-1.5c0.2-0.1,0.4-0.2,0.6-0.4c0.2-0.1,0.4-0.2,0.6-0.3c0.4-0.2,0.8-0.4,1.3-0.6
				c0.4-0.2,0.8-0.4,1.2-0.6s0.8-0.4,1.2-0.6c0.8-0.4,1.6-0.7,2.4-1.1c0.8-0.3,1.5-0.6,2.2-0.9c1.4-0.6,2.8-1,4-1.4
				c0.3-0.1,0.6-0.2,0.9-0.3c0.3-0.1,0.6-0.2,0.8-0.2c0.5-0.1,1-0.3,1.4-0.4s0.8-0.2,1.2-0.3c0.2,0,0.3-0.1,0.5-0.1
				c0.1,0,0.3-0.1,0.4-0.1c0.5-0.1,0.7-0.2,0.7-0.2L67.7,2.4c0,0-0.3,0.1-0.8,0.2c-0.1,0-0.3,0.1-0.4,0.1c-0.2,0-0.3,0.1-0.5,0.1
				c-0.4,0.1-0.8,0.2-1.3,0.4c-0.5,0.1-1,0.3-1.6,0.5c-0.3,0.1-0.6,0.2-0.9,0.3c-0.3,0.1-0.6,0.2-1,0.3c-1.4,0.5-2.9,0.9-4.5,1.6
				c-0.8,0.3-1.7,0.7-2.6,1c-0.9,0.4-1.8,0.8-2.7,1.2c-0.5,0.2-0.9,0.4-1.4,0.6s-0.9,0.5-1.4,0.7s-0.9,0.5-1.4,0.7
				c-0.2,0.1-0.5,0.2-0.7,0.4c-0.2,0.1-0.5,0.3-0.7,0.4c-1,0.5-1.9,1.1-2.9,1.7S41,13.8,40,14.4c-0.2,0.2-0.5,0.3-0.7,0.5
				s-0.5,0.3-0.7,0.5c-0.5,0.3-0.9,0.7-1.4,1s-1,0.7-1.4,1c-0.5,0.4-0.9,0.7-1.4,1.1L33,19.6l-0.7,0.5l-0.7,0.6
				c-0.9,0.8-1.8,1.5-2.6,2.3s-1.7,1.6-2.5,2.4c-0.2,0.2-0.4,0.4-0.6,0.6c-0.2,0.2-0.4,0.4-0.6,0.6c-0.4,0.4-0.8,0.8-1.1,1.2
				c-0.4,0.4-0.8,0.8-1.1,1.2c-0.4,0.4-0.7,0.8-1.1,1.2c-0.3,0.4-0.7,0.8-1,1.2c-0.2,0.2-0.3,0.4-0.5,0.6c-0.1,0.1-0.2,0.2-0.2,0.3
				c-0.1,0.1-0.2,0.2-0.2,0.3c-1.2,1.6-2.4,3.1-3.4,4.5c-0.5,0.7-1,1.4-1.5,2.1c-0.4,0.7-0.8,1.3-1.2,1.9s-0.7,1.2-1.1,1.7
				c-0.3,0.5-0.6,1-0.9,1.5c-0.5,0.9-0.9,1.6-1.2,2.1c-0.1,0.2-0.2,0.4-0.3,0.6c-0.4,0-0.4,0-0.4,0l9.4,5
				C19.5,52.1,19.5,52,19.6,51.9z"/>
			<path id="XMLID_87_" class="st0" d="M75.9,11.6c0.2,0,0.5-0.1,0.9-0.2c0.3,0,0.7-0.1,1.2-0.2c0.4-0.1,0.9-0.1,1.5-0.2
				c0.3,0,0.6-0.1,0.8-0.1c0.1,0,0.3,0,0.4-0.1c0.2,0,0.3,0,0.5,0c0.6,0,1.3-0.1,2-0.2c0.7,0,1.4-0.1,2.2-0.1c1.5,0,3.2-0.1,5,0
				c0.4,0,0.9,0,1.3,0c0.2,0,0.5,0,0.7,0c0.1,0,0.2,0,0.3,0s0.2,0,0.3,0c0.9,0.1,1.9,0.1,2.8,0.2c0.2,0,0.5,0,0.7,0.1
				c0.2,0,0.5,0.1,0.7,0.1c0.5,0.1,1,0.1,1.5,0.2s1,0.1,1.5,0.2c0.3,0,0.5,0.1,0.7,0.1s0.5,0.1,0.7,0.1c0.5,0.1,1,0.2,1.5,0.3
				c0.3,0,0.5,0.1,0.8,0.1l0.4,0.1l0.4,0.1c1,0.2,2,0.5,3,0.7c4,1,7.9,2.4,11.5,3.9c0.9,0.4,1.7,0.8,2.6,1.2
				c0.2,0.1,0.4,0.2,0.6,0.3s0.4,0.2,0.6,0.3c0.4,0.2,0.8,0.4,1.2,0.6c0.4,0.2,0.8,0.4,1.2,0.6c0.2,0.1,0.4,0.2,0.6,0.3
				c0.2,0.1,0.4,0.2,0.5,0.3c0.7,0.4,1.4,0.8,2.1,1.2c0.2,0.1,0.3,0.2,0.5,0.3c0.2,0.1,0.3,0.2,0.5,0.3c0.3,0.2,0.6,0.4,0.9,0.6
				c0.6,0.4,1.2,0.7,1.7,1.1c1,0.7,1.9,1.4,2.7,1.9c0.2,0.1,0.4,0.3,0.5,0.4c0.2,0.1,0.3,0.2,0.4,0.3c0.3,0.2,0.5,0.4,0.7,0.6
				c0.4,0.3,0.6,0.5,0.6,0.5l6.6-8.4c0,0-0.2-0.2-0.7-0.5c-0.2-0.2-0.5-0.4-0.8-0.6c-0.2-0.1-0.3-0.3-0.5-0.4
				c-0.2-0.1-0.4-0.3-0.6-0.4c-0.8-0.6-1.8-1.3-3-2.1c-0.6-0.4-1.2-0.8-1.9-1.2c-0.3-0.2-0.7-0.4-1-0.7c-0.2-0.1-0.4-0.2-0.5-0.3
				c-0.2-0.1-0.4-0.2-0.6-0.3c-0.8-0.4-1.6-0.9-2.4-1.4c-0.2-0.1-0.4-0.2-0.6-0.4c-0.2-0.1-0.4-0.2-0.6-0.3
				c-0.4-0.2-0.9-0.5-1.3-0.7c-0.4-0.2-0.9-0.5-1.4-0.7c-0.2-0.1-0.5-0.2-0.7-0.4c-0.2-0.1-0.5-0.2-0.7-0.3c-1-0.4-2-0.9-3-1.3
				c-4.1-1.7-8.5-3.2-13.1-4.4c-1.1-0.3-2.3-0.5-3.4-0.8l-0.4-0.1l-0.3-0.2c-0.3-0.1-0.6-0.1-0.9-0.2c-0.6-0.1-1.1-0.2-1.7-0.3
				C103.3,1,103,1,102.7,0.9c-0.3,0-0.6-0.1-0.8-0.1c-0.6-0.1-1.1-0.1-1.7-0.2s-1.1-0.1-1.7-0.2c-0.3,0-0.6-0.1-0.8-0.1
				c-0.3,0-0.6,0-0.8-0.1C95.8,0.1,94.7,0,93.7,0c-0.1,0-0.3,0-0.4,0c-0.1,0-0.3,0-0.4,0c-0.3,0-0.5,0-0.8,0c-0.5,0-1,0-1.5,0
				c-2-0.1-3.9,0-5.7,0c-0.9,0-1.7,0.1-2.5,0.1c-0.8,0.1-1.6,0.1-2.3,0.2c-0.2,0-0.4,0-0.5,0c-0.2,0-0.3,0-0.5,0.1
				c-0.3,0-0.7,0.1-1,0.1c-0.6,0.1-1.2,0.1-1.7,0.2s-1,0.1-1.4,0.2S74.3,1,74,1.1c-0.5,0.1-0.8,0.1-0.8,0.1L75,11.7
				C75.1,11.7,75.4,11.7,75.9,11.6z"/>
			<path id="XMLID_86_" class="st1" d="M177.7,85.7c0-0.3,0-0.5,0-0.8s0-0.6,0-0.9c0-0.6-0.1-1.3-0.1-2c-0.1-0.7-0.1-1.5-0.2-2.3
				c-0.1-0.8-0.2-1.6-0.3-2.5c-0.1-0.9-0.2-1.8-0.4-2.7s-0.3-1.9-0.5-2.9c0-0.2-0.1-0.5-0.1-0.7c-0.1-0.2-0.1-0.5-0.2-0.8
				c-0.1-0.5-0.2-1-0.4-1.5c-0.1-0.5-0.2-1-0.4-1.6c0-0.1-0.1-0.3-0.1-0.4l-0.1-0.4c-0.1-0.3-0.1-0.5-0.2-0.8
				c-0.3-1.1-0.6-2.1-0.9-3.2c-0.4-1.1-0.7-2.2-1.1-3.3c-0.1-0.3-0.2-0.5-0.3-0.8c-0.1-0.3-0.2-0.5-0.3-0.8
				c-0.2-0.5-0.4-1.1-0.6-1.6s-0.4-1.1-0.7-1.6c-0.2-0.5-0.5-1.1-0.7-1.6c-0.9-2.2-2-4.2-3.1-6.3c-0.6-1-1.1-2-1.7-3
				c-0.3-0.5-0.6-1-0.9-1.4c-0.3-0.5-0.6-0.9-0.9-1.4s-0.6-0.9-0.9-1.4c-0.3-0.4-0.6-0.9-0.9-1.3s-0.6-0.9-0.9-1.3
				c-0.3-0.4-0.6-0.8-0.9-1.2c-0.6-0.8-1.2-1.6-1.8-2.3c-0.1-0.2-0.3-0.4-0.4-0.6c-0.1-0.2-0.3-0.4-0.4-0.5c-0.3-0.3-0.6-0.7-0.9-1
				c-0.6-0.7-1.1-1.3-1.7-1.9c-0.6-0.6-1.1-1.1-1.6-1.6s-0.9-1-1.4-1.4c-0.4-0.4-0.9-0.8-1.2-1.2c-0.7-0.7-1.3-1.3-1.7-1.6
				c-0.4-0.4-0.6-0.6-0.6-0.6l-7.1,8c0,0,0.2,0.2,0.6,0.5s0.9,0.8,1.5,1.4c0.3,0.3,0.7,0.7,1.1,1c0.4,0.4,0.8,0.8,1.2,1.3
				s0.9,0.9,1.4,1.5c0.5,0.5,1,1.1,1.5,1.7c0.3,0.3,0.5,0.6,0.8,0.9c0.1,0.2,0.3,0.3,0.4,0.5c0.1,0.2,0.3,0.3,0.4,0.5
				c0.5,0.7,1,1.3,1.6,2c0.3,0.3,0.5,0.7,0.8,1.1c0.3,0.4,0.5,0.7,0.8,1.1c0.3,0.4,0.5,0.8,0.8,1.2c0.3,0.4,0.5,0.8,0.8,1.2
				c0.3,0.4,0.5,0.8,0.8,1.2c0.3,0.4,0.5,0.8,0.8,1.3c0.5,0.9,1,1.7,1.5,2.6c0.9,1.8,1.9,3.6,2.7,5.5l0.6,1.4c0.2,0.5,0.4,1,0.6,1.4
				c0.2,0.5,0.4,1,0.6,1.4c0.1,0.2,0.2,0.5,0.3,0.7c0.1,0.2,0.2,0.5,0.3,0.7c0.3,1,0.6,1.9,1,2.9c0.3,1,0.5,1.9,0.8,2.8
				c0.1,0.2,0.1,0.5,0.2,0.7l0.1,0.3l0.1,0.3c0.1,0.5,0.2,0.9,0.3,1.4c0.1,0.5,0.2,0.9,0.3,1.3c0.1,0.2,0.1,0.4,0.2,0.7
				c0,0.2,0.1,0.4,0.1,0.7c0.2,0.9,0.3,1.7,0.5,2.5s0.2,1.6,0.3,2.4c0.1,0.8,0.2,1.5,0.3,2.2c0.1,0.7,0.1,1.4,0.2,2
				c0,0.6,0.1,1.2,0.1,1.8c0,0.3,0,0.5,0,0.8c0,0.2,0,0.5,0,0.7c0,1.8,0.1,2.8,0.1,2.8s0,1-0.1,2.8c0,0.2,0,0.5,0,0.7s0,0.5,0,0.8
				c0,0.5-0.1,1.1-0.1,1.8c0,0.6-0.1,1.3-0.2,2c-0.1,0.7-0.2,1.4-0.3,2.2c-0.1,0.8-0.2,1.6-0.3,2.4c-0.1,0.8-0.3,1.7-0.5,2.5
				c0,0.2-0.1,0.4-0.1,0.7c-0.1,0.2-0.1,0.4-0.2,0.7c-0.1,0.4-0.2,0.9-0.3,1.3c-0.1,0.5-0.2,0.9-0.3,1.4l-0.1,0.3l-0.1,0.3
				c-0.1,0.2-0.1,0.5-0.2,0.7c-0.3,0.9-0.5,1.9-0.8,2.8c-0.3,0.9-0.6,1.9-1,2.9c-0.1,0.2-0.2,0.5-0.3,0.7c-0.1,0.2-0.2,0.5-0.3,0.7
				c-0.2,0.5-0.4,1-0.6,1.4c-0.2,0.5-0.4,1-0.6,1.4l-0.6,1.4c-0.8,1.9-1.8,3.7-2.7,5.5c-0.5,0.9-1,1.8-1.5,2.6
				c-0.2,0.4-0.5,0.8-0.8,1.3c-0.3,0.4-0.5,0.8-0.8,1.2c-0.3,0.4-0.5,0.8-0.8,1.2c-0.3,0.4-0.5,0.8-0.8,1.2
				c-0.3,0.4-0.5,0.8-0.8,1.1c-0.3,0.4-0.5,0.7-0.8,1.1c-0.5,0.7-1.1,1.4-1.6,2c-0.1,0.2-0.3,0.3-0.4,0.5c-0.1,0.2-0.3,0.3-0.4,0.5
				c-0.3,0.3-0.5,0.6-0.8,0.9c-0.5,0.6-1,1.2-1.5,1.7s-0.9,1-1.4,1.5c-0.4,0.5-0.8,0.9-1.2,1.3s-0.8,0.7-1.1,1
				c-0.7,0.6-1.2,1.1-1.5,1.4c-0.4,0.3-0.6,0.5-0.6,0.5l7.1,8c0,0,0.2-0.2,0.6-0.6c0.4-0.4,1-0.9,1.7-1.6c0.4-0.4,0.8-0.7,1.2-1.2
				c0.4-0.4,0.9-0.9,1.4-1.4s1-1.1,1.6-1.6c0.5-0.6,1.1-1.2,1.7-1.9c0.3-0.3,0.6-0.7,0.9-1c0.1-0.2,0.3-0.3,0.4-0.5
				c0.1-0.2,0.3-0.4,0.4-0.6c0.6-0.7,1.2-1.5,1.8-2.3c0.3-0.4,0.6-0.8,0.9-1.2c0.3-0.4,0.6-0.8,0.9-1.3c0.3-0.4,0.6-0.9,0.9-1.3
				c0.3-0.4,0.6-0.9,0.9-1.4s0.6-0.9,0.9-1.4c0.3-0.5,0.6-0.9,0.9-1.4c0.6-1,1.1-2,1.7-3c1.1-2,2.2-4.1,3.1-6.3
				c0.2-0.5,0.5-1.1,0.7-1.6s0.4-1.1,0.7-1.6c0.2-0.5,0.4-1.1,0.6-1.6c0.1-0.3,0.2-0.5,0.3-0.8c0.1-0.3,0.2-0.5,0.3-0.8
				c0.4-1.1,0.7-2.2,1.1-3.3c0.3-1.1,0.6-2.2,0.9-3.2c0.1-0.3,0.1-0.5,0.2-0.8l0.1-0.4c0-0.1,0.1-0.3,0.1-0.4c0.1-0.5,0.2-1,0.4-1.6
				c0.1-0.5,0.2-1,0.4-1.5c0.1-0.3,0.1-0.5,0.2-0.8c0.1-0.2,0.1-0.5,0.1-0.7c0.2-1,0.4-2,0.5-2.9c0.2-0.9,0.3-1.8,0.4-2.7
				c0.1-0.9,0.2-1.7,0.3-2.5c0.1-0.8,0.1-1.6,0.2-2.3c0.1-0.7,0.1-1.4,0.1-2c0-0.3,0-0.6,0-0.9s0-0.6,0-0.8c0-2,0.1-3.2,0.1-3.2
				S177.8,87.8,177.7,85.7z"/>
			<path id="XMLID_112_" class="st0" d="M134.7,31c-15.2-11.9-34.8-17.8-54.1-15.6c-17.5,2-33.6,10.1-45.7,22.8
				c-7,7.3-12.6,16.4-15.9,26.1c-2.7,8-4.3,16.5-4.2,25c0.2,8.9,1.6,17.8,4.9,26.2c3.7,9.4,9.1,17.7,16.1,25
				c5.8,6.1,12.9,11.1,20.4,14.8c8.7,4.3,18.1,6.6,27.8,7.4c18.7,1.4,38.1-5,52.3-17.2c8.1-7,14.9-15.5,19.4-25.2
				c3.9-8.5,6.1-17.5,6.8-26.8c1.4-18.9-5.3-38.1-17.5-52.5C141.9,37.4,138.4,34,134.7,31C134.1,30.6,134.9,31.2,134.7,31z M142,54
				c8.5,13,12,28.9,9.7,44.3c-2.6,17.5-12.6,32.8-26.9,43c-13.2,9.4-30.6,13.1-46.5,10.4c-14.1-2.4-26.9-9.4-36.6-19.9
				c-6.1-6.6-10.6-14.5-13.5-23c-2.4-7.2-3.3-14.8-3.1-22.3c0.2-7.7,2-15.4,5-22.5c3.5-8.3,8.8-15.6,15.3-21.8
				c11.6-11.1,28.1-17.5,44.1-17c7.9,0.2,15.6,1.6,23,4.6c7.8,3.2,14.9,7.8,20.9,13.7C136.6,46.7,139.5,50.3,142,54
				C144.1,57.2,139.9,50.8,142,54z"/>
		</g>
	</g>
	<g>
		<path class="st0" d="M253.8,55.8l-11.4,53.4c1.8,1.3,3.6,1.9,5.4,1.9c11.3,0,18.3-22.6,18.3-41.9c0-12.9-5.6-18-13.9-18
			c-14.2,0-24.9,8.7-24.9,23.1c0,4.9,1.2,5.6,1.3,6.5c-6.3,0-10.2-2.4-10.2-8.8c0-13,16.1-25.1,35.4-25.1
			c18.5,0,25.4,12.8,25.4,27.4c0,21.9-12.3,45.2-26.4,45.2c-3.6,0-7.5-1.5-11.6-5l-0.8,3.8h-13.6l12.9-60.5L253.8,55.8z"/>
		<path class="st0" d="M324.6,70.7l-9.4,44.1c5.8-2.1,9.3-5.3,12-13.6h4c-3.7,12.6-10.9,16.2-16.8,17.8l-1.4,6.9
			c-2.9,13.6-10.8,16.2-17.1,16.2c-5.8,0-10.7-3-10.7-9.2c0-8,8.4-12,15.5-14.2l1.1-5.1c-4,4.5-8.2,5.3-11.4,5.3
			c-5.7,0-10.2-3.4-10.2-11.4c0-1.8,0.3-3.9,0.8-6.2l6.5-30.5h13.7l-6.9,32.4c-0.2,0.8-0.3,1.6-0.3,2.4c0,2.2,0.7,4.2,2.9,4.2
			c3.5,0,6-3.3,7.4-7.8l6.7-31.1h13.6V70.7z M293.6,134.6c2,0,4.3-2.9,5.5-8.5l0.6-2.8c-4.9,1.8-9.3,4.3-9.3,8.1
			C290.4,132.8,291.5,134.6,293.6,134.6z"/>
		<path class="st0" d="M351.2,78.9c-3.4,0-6,4-7.4,8.8l-6.5,30.5h-13.7l10.1-47.6h13.7l-1,4.9c4-4.6,8.2-5.3,11.1-5.3
			c6.1,0,10.6,3.1,10.6,10.8c0,7.7-4.6,19.2-4.6,24.5c0,2.4,1,4,3.8,4c4.2,0,5.9-3.4,8-8.4h4c-5.3,15.6-12.7,17.6-17.7,17.6
			c-8.3,0-11.2-5.3-11.2-10.8c0-6.5,4.3-18.2,4.3-24.3C354.6,80.7,353.5,78.9,351.2,78.9z"/>
		<path class="st0" d="M420.9,70.7l-6.9,32.4c-0.3,1.2-0.4,2.2-0.4,3c0,2.7,1.2,4.1,3.9,4.1c3.7,0,6.3-4.2,7.7-8.9h4
			c-5.4,15.5-14,17.6-19.1,17.6c-5.3,0-8.8-3-9.3-8.8c-3,4.4-7.4,8.8-14.2,8.8c-6.5,0-12.7-4-12.7-15.3c0-12.8,7.9-33.3,24.5-33.3
			c5.4,0,7.7,2.1,7.7,4.9v0.7l1-5h13.8V70.7z M388.1,102.2c0,7.3,3,7.4,4.8,7.4c2.8,0,6.8-2.9,7.9-8.4l4.6-21.5
			c0-1.1-0.9-3.6-3.9-3.6C393.3,76.1,388.1,93.2,388.1,102.2z"/>
		<path class="st0" d="M472.8,78.9c-3.4,0-6,4-7.4,8.8l-6.5,30.5h-13.7l6.9-32.8c0.2-0.8,0.3-1.5,0.3-2.4c0-2.1-0.8-4.2-2.9-4.2
			c-3.7,0-6.3,4.1-7.7,8.8l-6.5,30.5h-13.7l10.1-47.6h13.7l-1,4.9c4-4.6,8.3-5.4,11.6-5.4c5,0,8.8,2.3,9.8,8.2
			c4.6-7,9.7-8.1,13.2-8.1c6.1,0,10.6,3.1,10.6,10.8c0,7.7-4.6,19.2-4.6,24.5c0,2.4,1,4,3.8,4c4.2,0,5.9-3.4,8-8.4h4
			c-5.3,15.6-12.7,17.6-17.7,17.6c-8.3,0-11.2-5.3-11.2-10.8c0-6.5,4.3-18.2,4.3-24.3C476.2,80.7,475.1,78.9,472.8,78.9z"/>
		<path class="st0" d="M517.1,70.7l-6.9,32.4c-0.3,1.2-0.4,2.2-0.4,3c0,2.7,1.2,3.5,3.9,3.5c3.7,0,7.1-3.6,8.6-8.4h4
			c-5.4,15.5-14.8,17.6-20,17.6c-5.7,0-10.2-3.4-10.2-11.4c0-1.8,0.3-3.9,0.8-6.2l6.5-30.5H517.1z M512.8,50.4
			c4.2,0,7.6,3.4,7.6,7.6s-3.4,7.5-7.6,7.5c-4.2,0-7.5-3.3-7.5-7.5S508.6,50.4,512.8,50.4z"/>
		<path class="st0" d="M549.3,78.7c0-2.3-0.8-3.9-2.6-3.9c-6.1,0-12.3,17.8-12.3,27.2c0,5.9,2.5,7.9,5.7,7.9c3.7,0,8.5-2.8,11.4-5.2
			c-2,10.8-8.8,14.1-16.5,14.1c-8.9,0-14.7-4.4-14.7-15.1c0-11,6.3-33.9,25.6-33.9c8.5,0,10.6,4.4,10.6,8.8c0,4.9-2.5,6.9-5,6.9
			c-1.1,0-2.3-0.4-3.3-1.1C548.9,82.4,549.3,80.4,549.3,78.7z"/>
		<path class="st0" d="M625.2,102.1c-5,12.8-18.5,17.7-27.1,17.7c-14.1,0-20.8-6.3-20.8-23.4c0-17.2,8.3-49.5,33.2-49.5
			c8.9,0,15.9,3.5,15.9,12.8c0,5-1.8,8.8-6.7,8.8c-1.5,0-3.6-0.4-5.4-2.5c2.3-1.1,4.4-5.1,4.4-8.8c0-3-1.5-5.8-5.8-5.8
			c-10.5,0-19.8,25-19.8,44.4c0,8.8,2.3,14.8,11.4,14.8c7.4,0,14.2-3.6,18.6-9.5L625.2,102.1z"/>
		<path class="st0" d="M642.9,70.7l-1.2,5.9c3.3-2.9,6.9-5.9,11.5-5.9c4.3,0,6.6,3.5,6.6,7.1c0,3.3-2.2,6.9-6.9,6.9
			c-5.3,0-2.7-6.3-5.5-6.3c-2.9,0-4.6,1.4-6.9,3.6l-7.6,36.2h-13.7l10.1-47.6L642.9,70.7L642.9,70.7z"/>
		<path class="st0" d="M695.4,85c0.4,0.2,0.8,0.2,1,0.2c4.4,0,10.6-2.9,14.7-5.7l0.9,2.6c-3.6,3.9-9.9,6.8-16.8,7.9
			c-1.5,17.6-11,28.6-22.7,28.6c-8.9,0-15.2-4.2-15.2-15c0-10.9,6.5-33.8,26.1-33.8C691.4,69.8,695.4,75,695.4,85z M687.2,90.3
			c-2-0.5-2.6-2.1-2.6-4c0-2.7,1.2-4.4,3-5.1c-0.2-4-1.1-5.5-3.6-5.5c-6.8,0-12.7,17.4-12.7,26.7c0,6.3,1.2,7.7,4.9,7.7
			C680.8,110.1,685.7,101.5,687.2,90.3z"/>
		<path class="st0" d="M720.4,70.7l-6.9,32.4c-0.2,0.8-0.3,1.6-0.3,2.4c0,2.2,0.7,4.2,2.9,4.2c3.7,0,6.2-3.6,7.6-8.4l6.5-30.5h13.7
			l-6.9,32.4c-0.3,1.3-0.5,2.6-0.5,3.4c0,1.9,1,3.1,3.2,3.1c9.3,0,16.5-21.3,16.5-31.8c-0.3,0.7-2.3,1-3,1c-2.3,0-3.4-2.8-3.4-4.9
			c0-2.9,1.9-5.1,5.9-5.1c4.6,0,6,4.1,6,8.3c0,15.2-7.7,41.8-27.1,41.8c-6.2,0-10.3-2.7-11.4-8c-4.7,6.9-9.7,8-13.5,8
			c-5.7,0-10.2-3.4-10.2-11.4c0-1.8,0.3-3.9,0.8-6.2l6.5-30.5h13.6V70.7z"/>
		<path class="st0" d="M787.1,78.9c-3.4,0-6,4-7.4,8.8l-6.5,30.5h-13.7l10.1-47.6h13.7l-1,4.9c4-4.6,8.2-5.3,11.1-5.3
			c6.1,0,10.6,3.1,10.6,10.8c0,7.7-4.6,19.2-4.6,24.5c0,2.4,1,4,3.8,4c1.6,0,2.6-0.2,3.1-0.6c-0.9,6.9-5.4,9.8-10.5,9.8
			c-7.3,0-9.6-5.3-9.6-10.8c0-6.5,4.3-18.2,4.3-24.3C790.5,80.7,789.4,78.9,787.1,78.9z"/>
		<path class="st0" d="M936.7,51.2l-4.5,21.1h0.6c7.6,0,13.7-8.3,13.7-15.4c0-5.4-3.5-10.3-12.6-10.3c-11.1,0-23.8,7.4-23.8,23.1
			c0,4.9,1.2,5.6,1.3,6.5c-6.3,0-10.2-2.4-10.2-8.8c0-13.1,16.6-25.2,34.5-25.2c14,0,20.3,7.3,20.3,15.1c0,5.6-3.3,11.6-9.5,15.1
			c8.1,1.6,11.2,8.2,11.2,15.3c0,9.1-4.9,27.4-20.8,27.4c-4.1,0-9.4-1.2-9.4-7c0-1.5,0.4-3.3,1.2-5.5c2.4,2.5,4.2,3.4,6.4,3.4
			c6.9,0,9.4-9.9,9.4-17.1c0-6.7-2.1-12.1-9-12.1c-0.8,0-2.7,0.1-4.4,0.3l-7.8,36.4h-13.7L922.5,53L936.7,51.2z"/>
		<path class="st0" d="M981.3,66l-1.2,5.9c3.3-2.9,6.9-5.9,11.5-5.9c4.3,0,6.6,3.5,6.6,7.1c0,3.3-2.2,6.9-6.9,6.9
			c-5.3,0-2.7-6.3-5.5-6.3c-2.9,0-4.6,1.4-6.9,3.6l-7.6,36.2h-13.7l10.1-47.6L981.3,66L981.3,66z"/>
		<path class="st0" d="M1017.1,66l-6.9,32.4c-0.3,1.2-0.4,2.2-0.4,3c0,2.7,1.2,3.5,3.9,3.5c3.7,0,7.1-3.6,8.6-8.4h4
			c-5.4,15.5-14.8,17.6-20,17.6c-5.7,0-10.2-3.4-10.2-11.4c0-1.8,0.3-3.9,0.8-6.2l6.5-30.5H1017.1z M1012.8,45.8
			c4.2,0,7.6,3.4,7.6,7.6s-3.4,7.5-7.6,7.5c-4.2,0-7.5-3.3-7.5-7.5S1008.6,45.8,1012.8,45.8z"/>
		<path class="st0" d="M1072,47l-10.9,51.4c-0.3,1.2-0.4,2.2-0.4,3c0,2.7,1.2,3.5,3.9,3.5c3.7,0,6.3-3.6,7.7-8.4h4
			c-5.4,15.5-14,17-19.1,17c-5.1,0-8.6-2.9-9.3-8.2c-2.9,4.4-7.3,8.8-14.1,8.8c-6.5,0-12.7-4-12.7-15.3c0-12.8,7.9-33.3,24.5-33.3
			c5.4,0,7.7,2.1,7.7,4.9v0.4l4.7-21.9L1072,47z M1047.8,96.6l4.7-21.8c-0.2-1.1-1-3.3-3.9-3.3c-8.1,0-13.3,17.1-13.3,26.1
			c0,7.3,3,7.4,4.8,7.4c2.7,0,6.6-2.7,7.8-7.9L1047.8,96.6L1047.8,96.6z"/>
		<path class="st0" d="M1118,66l-9.4,44.2c5.8-2.1,9.3-5.3,12-13.6h4c-3.7,12.6-10.9,16.2-16.8,17.8l-1.4,6.9
			c-2.9,13.6-10.8,16.2-17.1,16.2c-5.8,0-10.7-3-10.7-9.2c0-8,8.4-12,15.5-14.2l1.1-5c-2.8,2.9-6.5,5.2-11.4,5.2
			c-6.5,0-12.7-4-12.7-15.3c0-12.8,7.9-33.3,24.5-33.3c5.4,0,7.7,2.1,7.7,4.9v0.6l1-4.9h13.7V66z M1087,130c2,0,4.3-2.9,5.5-8.5
			l0.6-2.8c-4.9,1.8-9.3,4.3-9.3,8.1C1083.7,128.2,1084.9,130,1087,130z M1085.2,97.5c0,7.3,3,7.4,4.8,7.4c2.6,0,6.3-2.6,7.6-7.4
			l4.9-22.6c-0.1-1-0.9-3.5-3.9-3.5C1090.4,71.4,1085.2,88.6,1085.2,97.5z"/>
		<path class="st0" d="M1139.2,105.1c3.6,0,8.2-2.4,11.2-5c-2,10.8-8.9,14.1-16.5,14.1c-8.8,0-14.7-4.4-14.7-15.1
			c0-10.9,6.2-33.9,25.7-33.9c8.5,0,10.5,4.4,10.5,9.1c0,11-10.5,19.4-21.9,20.1c-0.1,1-0.2,2-0.2,2.9
			C1133.3,103.2,1135.9,105.1,1139.2,105.1z M1145.7,70.2c-4.8,0-9.5,10.6-11.5,19.6c7.4-0.4,13.9-7.7,13.9-15.7
			C1148.1,71.7,1147.5,70.2,1145.7,70.2z"/>
		<g>
			<path class="st1" d="M888.7,80c0,4.7-5.8,10.6-12.9,11.8c-6.4,23.2-18.1,23.7-26.4,23.7c-11.7,0-17.5-8.4-17.5-17.1
				c0-8.1,5.1-16.6,15.3-18.7c-5.8-3.1-8.4-8.1-8.4-12.9c0-7.7,6.8-15.3,18.8-15.3c7.9,0,15.6,3.1,15.6,11.4c0,4.5-1.6,7.8-5.9,7.8
				c-1.4,0-3.2-0.3-4.8-2.2c2.1-0.6,3.7-4.8,3.7-6.9c0-1.4-0.2-6.3-5.6-6.3c-6.2,0-10.3,4.7-10.3,10.4c0,4.9,3.2,10.4,11.2,14
				c-10.8,4.4-14.7,11.2-14.7,17c0,6.2,4.5,11.3,9.9,11.3c5.8,0,12.7-3.6,15.3-15.9c-2.1-0.2-4.1-0.5-6-0.5c-3.6,0-6.4,1.3-8,3.8
				l-0.6-0.1c1.7-6.9,7.6-11.9,16.4-11.9c2.4,0,4.3,0.4,6.4,0.4c3.1,0,6.6-1.1,8.1-3.6h0.4V80z"/>
		</g>
	</g>
</g>
</svg>
